<svg preserveAspectRatio="none" width="100%" height="100%" overflow="visible" style="display: block;" viewBox="0 0 20.7692 20.7692" fill="none" xmlns="http://www.w3.org/2000/svg">
<g id="tg-logo" clip-path="url(#clip0_0_497)">
<path id="telegram-1" fill-rule="evenodd" clip-rule="evenodd" d="M15.908 19.7222C16.1867 19.9195 16.5458 19.9688 16.866 19.8476C17.1862 19.7256 17.4216 19.4522 17.4925 19.1207C18.2446 15.5865 20.0688 6.64102 20.7533 3.42611C20.8052 3.18381 20.7187 2.93198 20.5283 2.77015C20.3379 2.60833 20.074 2.56159 19.8386 2.649C16.21 3.99207 5.03534 8.18486 0.467838 9.87496C0.177934 9.98227 -0.0107197 10.2609 -0.0012005 10.5664C0.00918411 10.8727 0.215146 11.1384 0.511972 11.2276C2.56034 11.8402 5.24909 12.6926 5.24909 12.6926C5.24909 12.6926 6.50562 16.4874 7.16072 18.4172C7.24293 18.6595 7.43245 18.8499 7.68255 18.9156C7.93178 18.9805 8.19832 18.9122 8.38437 18.7365C9.43668 17.743 11.0636 16.207 11.0636 16.207C11.0636 16.207 14.1548 18.4734 15.908 19.7222ZM6.38014 12.2132L7.83313 17.0057L8.15591 13.9708C8.15591 13.9708 13.7697 8.90746 16.9699 6.0214C17.0633 5.93659 17.0763 5.79467 16.9984 5.69515C16.9214 5.59563 16.7795 5.57227 16.673 5.63977C12.964 8.00832 6.38014 12.2132 6.38014 12.2132Z" fill="var(--fill-0, #FEFFFD)"/>
</g>
<defs>
<clipPath id="clip0_0_497">
<rect width="20.7692" height="20.7692" fill="white"/>
</clipPath>
</defs>
</svg>
