<svg preserveAspectRatio="none" width="100%" height="100%" overflow="visible" style="display: block;" viewBox="0 0 15 12.9545" fill="none" xmlns="http://www.w3.org/2000/svg">
<g id="telegram">
<path id="Shape" opacity="0.402231" d="M7.38315 5.78583C6.96305 6.07803 6.54778 6.37022 6.12768 6.65738C5.70275 6.94957 5.2585 7.21658 4.82875 7.4987C4.36519 7.79593 3.86783 7.90172 3.34149 7.81608C2.28883 7.64983 1.29893 7.27199 0.34767 6.77829C0.251095 6.72791 0.159349 6.65738 0.0869174 6.57173C-0.0289725 6.43067 -0.0289725 6.30473 0.0869174 6.16367C0.178664 6.0478 0.304211 5.97727 0.42493 5.90674C0.985064 5.58432 1.56451 5.29716 2.14396 5.02008C2.60752 4.79338 3.07591 4.58683 3.5443 4.3702C3.95474 4.1838 4.36519 3.99236 4.77563 3.811C5.43234 3.5188 6.08905 3.23165 6.75059 2.94449C8.32959 2.25431 9.91824 1.58428 11.5117 0.919281C12.1105 0.672427 12.7093 0.430611 13.3129 0.188795C13.5833 0.0830002 13.8633 0.0175083 14.1482 0.0023948C14.38 -0.00768088 14.6118 0.00743262 14.7953 0.178719C14.945 0.319778 15.0126 0.496103 14.9981 0.71273C14.9836 0.929357 14.9691 1.14598 14.9498 1.35757C14.9112 1.82105 14.8532 2.28453 14.7856 2.74802C14.6649 3.60445 14.5442 4.46088 14.4186 5.32235C14.3607 5.72538 14.2979 6.12337 14.2351 6.52639C14.2303 6.56166 14.2303 6.60196 14.2255 6.63723C14.1579 7.04025 14.0951 7.43824 14.0275 7.84127C13.8392 8.9899 13.6557 10.1335 13.4674 11.2821C13.4287 11.5189 13.3949 11.7557 13.3467 11.9874C13.1825 12.8388 12.2167 13.2318 11.5262 12.738C10.3335 11.8867 9.13116 11.0453 7.93363 10.199C7.57147 9.94205 7.21897 9.67 6.85199 9.42315C6.53329 9.20652 6.45603 8.82365 6.54778 8.50626C6.64918 8.16369 6.85199 7.89668 7.09826 7.65991C7.55699 7.21658 8.00606 6.77325 8.46479 6.32488L8.49376 6.30977C9.36294 5.48356 10.2418 4.67247 11.0385 3.77573C11.0965 3.71024 11.1303 3.63971 11.1496 3.55911C11.1689 3.48354 11.2027 3.3979 11.1351 3.3324C11.0723 3.27195 10.9902 3.30218 10.9178 3.32737C10.7343 3.38782 10.5653 3.49362 10.4011 3.59941C9.74441 4.03266 9.1215 4.5163 8.48411 4.97978C8.11712 5.23671 7.75014 5.51379 7.38315 5.78583Z" fill="var(--fill-0, #1F1914)" fill-opacity="0.5"/>
</g>
</svg>
