<svg preserveAspectRatio="none" width="100%" height="100%" overflow="visible" style="display: block;" viewBox="0 0 20.7692 20.8623" fill="none" xmlns="http://www.w3.org/2000/svg">
<g id="Group">
<g id="Vector" filter="url(#filter0_i_0_524)">
<path d="M0.0868596 10.3372C0.0862287 12.1592 0.562274 13.9378 1.46715 15.5055L0 20.8623L5.48204 19.4249C6.99251 20.2485 8.69311 20.6827 10.4237 20.6833H10.4281C16.1273 20.6833 20.7668 16.0453 20.7692 10.3455C20.7702 7.58318 19.6954 4.9857 17.7431 3.03167C15.7906 1.07786 13.1944 0.00115673 10.4281 0C4.72785 0 0.089173 4.63732 0.0868596 10.3372ZM3.35146 15.2356L3.14682 14.9106C2.28632 13.5424 1.83215 11.9614 1.83278 10.3379C1.83467 5.60034 5.69025 1.74603 10.4314 1.74603C12.7272 1.74697 14.8851 2.64196 16.508 4.2659C18.1308 5.88994 19.0238 8.04882 19.0232 10.3449C19.0211 15.0826 15.1654 18.9374 10.4281 18.9374H10.4247C8.88218 18.9366 7.3694 18.5223 6.04999 17.7396L5.73599 17.5533L2.48286 18.4062L3.35146 15.2356Z" fill="var(--fill-0, #F5F5F5)"/>
</g>
<path id="Vector_2" d="M7.84094 6.01891C7.64734 5.58861 7.44366 5.57998 7.25953 5.57241C7.10884 5.566 6.93648 5.56641 6.76434 5.56641C6.59199 5.56641 6.31206 5.63119 6.07535 5.88967C5.83843 6.14825 5.1709 6.7733 5.1709 8.04454C5.1709 9.31589 6.09691 10.5443 6.22594 10.7169C6.35518 10.8891 8.0135 13.5814 10.6398 14.6171C12.8225 15.4778 13.2667 15.3066 13.7405 15.2635C14.2142 15.2205 15.2692 14.6386 15.4845 14.0352C15.6998 13.4319 15.6998 12.9148 15.6353 12.8068C15.5707 12.6991 15.3984 12.6344 15.14 12.5053C14.8815 12.3761 13.6112 11.7509 13.3744 11.6647C13.1375 11.5786 12.9652 11.5355 12.7929 11.7942C12.6206 12.0526 12.1258 12.6344 11.975 12.8068C11.8243 12.9795 11.6735 13.001 11.4151 12.8718C11.1566 12.7421 10.3244 12.4695 9.33722 11.5894C8.56904 10.9045 8.05052 10.0587 7.89972 9.80003C7.74903 9.54166 7.88363 9.4017 8.01318 9.27288C8.12928 9.15711 8.27166 8.97119 8.4009 8.82039C8.52982 8.66949 8.57283 8.56181 8.65895 8.38946C8.74518 8.217 8.70207 8.0661 8.6375 7.93686C8.57283 7.80763 8.07071 6.52987 7.84094 6.01891Z" fill="var(--fill-0, #F5F5F5)"/>
</g>
<defs>
<filter id="filter0_i_0_524" x="0" y="0" width="20.7692" height="21.3238" filterUnits="userSpaceOnUse" color-interpolation-filters="sRGB">
<feFlood flood-opacity="0" result="BackgroundImageFix"/>
<feBlend mode="normal" in="SourceGraphic" in2="BackgroundImageFix" result="shape"/>
<feColorMatrix in="SourceAlpha" type="matrix" values="0 0 0 0 0 0 0 0 0 0 0 0 0 0 0 0 0 0 127 0" result="hardAlpha"/>
<feOffset dy="0.461538"/>
<feGaussianBlur stdDeviation="0.230769"/>
<feComposite in2="hardAlpha" operator="arithmetic" k2="-1" k3="1"/>
<feColorMatrix type="matrix" values="0 0 0 0 0 0 0 0 0 0 0 0 0 0 0 0 0 0 0.2 0"/>
<feBlend mode="normal" in2="shape" result="effect1_innerShadow_0_524"/>
</filter>
</defs>
</svg>
