<svg preserveAspectRatio="none" width="100%" height="100%" overflow="visible" style="display: block;" viewBox="0 0 91.875 35.0332" fill="none" xmlns="http://www.w3.org/2000/svg">
<g id="Yendex Eda" style="mix-blend-mode:hard-light">
<path id="Vector" d="M41.7856 4.46797H44.408V9.28508C44.408 10.1609 44.5829 10.8616 44.845 11.2995C45.1948 11.7374 45.7189 12.0002 46.4185 12.0002C46.9427 12.0002 47.3802 12.0002 47.9044 11.9126C48.3414 11.825 48.7789 11.6498 49.2159 11.3871V4.55559H51.9255V19.62H49.2159V13.4015C48.7789 13.6643 48.3414 13.8394 47.8172 13.927C47.2925 14.0146 46.7683 14.0146 46.1559 14.0146C44.845 14.0146 43.7961 13.6643 42.9216 12.876C42.1348 12.0877 41.6979 10.8616 41.6979 9.1099V4.46797H41.7856Z" fill="var(--fill-0, #1E1919)"/>
<path id="Vector_2" d="M56.3835 15.0618C56.4707 15.9377 56.6456 16.6384 57.0826 17.0762C57.5196 17.5141 58.2192 17.7769 59.1808 17.7769C59.7927 17.7769 60.4918 17.6893 61.1037 17.5141C61.7155 17.339 62.2402 17.0762 62.6772 16.8135V18.9155C62.3274 19.1782 61.8033 19.441 61.1914 19.6161C60.5795 19.7913 59.8799 19.8789 59.0059 19.8789C57.3447 19.8789 56.0337 19.441 55.072 18.4776C54.1981 17.5141 53.7605 16.1128 53.7605 14.186C53.7605 13.3978 53.8483 12.6095 54.0232 11.9088C54.1981 11.2081 54.5473 10.5951 54.8971 10.0695C55.3341 9.54406 55.7711 9.10614 56.3835 8.84339C56.9954 8.58065 57.6945 8.40547 58.4812 8.40547C59.1808 8.40547 59.705 8.49303 60.3169 8.66821C60.8416 8.84339 61.2786 9.1937 61.6284 9.54406C61.9782 9.98198 62.3274 10.5075 62.5023 11.2081C62.6772 11.8212 62.8521 12.6971 62.8521 13.6605V15.0618H56.3835ZM58.3941 10.5075C57.7822 10.5075 57.2575 10.7702 56.9077 11.2081C56.6456 11.6461 56.4707 12.2592 56.3835 13.135H60.142V12.9598C60.142 12.6095 60.142 12.2592 60.0548 11.9964C59.9676 11.7336 59.8799 11.4709 59.7927 11.2081C59.705 10.9454 59.4429 10.8578 59.268 10.6827C59.0059 10.5075 58.7433 10.5075 58.3941 10.5075Z" fill="var(--fill-0, #1E1919)"/>
<path id="Vector_3" d="M67.2234 14.2733V19.5283H64.601V8.66797H67.2234V13.8354L70.9824 8.66797H73.6048L69.8458 13.8354L74.1295 19.6159H71.1573L67.2234 14.2733Z" fill="var(--fill-0, #1E1919)"/>
<path id="Vector_4" d="M45.194 30.6544H46.5927V22.7719H44.5822C42.5716 22.7719 41.5228 23.8229 41.5228 25.3118C41.5228 26.538 42.1346 27.2386 43.0963 27.9393L41.3479 30.5668H42.8342L44.8448 27.589L44.1452 27.1511C43.2712 26.6256 42.9214 26.1876 42.9214 25.2242C42.9214 24.3484 43.5333 23.8229 44.5822 23.8229H45.194V30.6544ZM71.5065 30.742C72.1184 30.742 72.5554 30.6544 72.9052 30.3917V29.2531C72.5554 29.5158 72.1184 29.6034 71.5942 29.6034C70.6326 29.6034 70.2828 28.8151 70.2828 27.6765C70.2828 26.4504 70.8075 25.8373 71.6814 25.8373C72.2061 25.8373 72.7303 26.0125 72.9929 26.1876V25.0491C72.7303 24.8739 72.2061 24.7863 71.5065 24.7863C69.7581 24.7863 68.8841 26.0125 68.8841 27.7641C68.7969 29.691 69.6709 30.742 71.5065 30.742ZM63.1146 30.304V29.1654C62.6776 29.4282 61.978 29.691 61.3661 29.691C60.405 29.691 60.0551 29.2531 59.9674 28.2897H63.2023V27.589C63.2023 25.5745 62.3278 24.8739 61.0168 24.8739C59.3555 24.8739 58.5688 26.1 58.5688 27.8517C58.5688 29.8661 59.5304 30.8296 61.2789 30.8296C62.0657 30.742 62.6776 30.5668 63.1146 30.304ZM67.3983 30.6544H68.8841L66.6987 27.6765L68.622 25.0491H67.3105L65.3877 27.6765V25.0491H64.0762V30.6544H65.3877V27.9393L67.3983 30.6544ZM58.2195 29.6034H57.6076V24.9614H53.6737V25.487C53.6737 26.8883 53.586 28.64 53.149 29.6034H52.712V31.9682H53.9358V30.6544H56.908V31.9682H58.1318V29.6034H58.2195ZM50.7887 24.9614V27.2386H48.953V24.9614H47.6421V30.6544H48.953V28.2897H50.7887V30.6544H52.1002V24.9614H50.7887ZM60.9291 25.9249C61.6287 25.9249 61.8036 26.4504 61.8036 27.1511V27.2386H59.9674C59.9674 26.3628 60.3172 25.9249 60.9291 25.9249ZM56.2961 29.6034H54.3728C54.7226 28.7276 54.8103 27.1511 54.8103 26.1876V26.0125H56.209V29.6034H56.2961Z" fill="var(--fill-0, #1E1919)"/>
<path id="Vector_5" d="M76.1387 22.7719V30.6544H80.5973V29.6034H77.5373V27.2386H80.0726V26.1876H77.5373V23.9105H80.5973V22.7719H76.1387Z" fill="var(--fill-0, #1E1919)"/>
<path id="Vector_6" d="M86.717 29.6013H86.1046V24.9594H82.1713V25.4849C82.1713 26.8863 82.0835 28.6379 81.6465 29.6013H81.2096V31.9661H82.4333V30.6523H85.4056V31.9661H86.6293V29.6013H86.717ZM84.7059 29.6013H82.8703C83.2201 28.7255 83.3073 27.149 83.3073 26.1856V26.0104H84.7059V29.6013Z" fill="var(--fill-0, #1E1919)"/>
<path id="Vector_7" d="M91.6122 26.7987C91.6122 25.3974 90.9125 24.8719 89.5139 24.8719C88.6399 24.8719 87.9409 25.1346 87.5033 25.3974V26.536C87.8532 26.2732 88.6399 26.0105 89.3395 26.0105C89.9514 26.0105 90.3007 26.2732 90.3007 26.8863V27.1491H90.1263C88.0281 27.1491 87.1541 27.8497 87.1541 28.9883C87.1541 30.1269 87.8532 30.8276 88.902 30.8276C89.6888 30.8276 90.0386 30.5648 90.3007 30.3021H90.3884C90.3884 30.4772 90.4756 30.6524 90.4756 30.74H91.7871C91.6993 30.3021 91.6993 29.7765 91.6993 29.3387V26.7987H91.6122ZM90.3007 29.3387C90.1263 29.6014 89.7765 29.7765 89.3395 29.7765C88.8148 29.7765 88.465 29.4262 88.465 28.9883C88.465 28.3752 88.902 28.1125 90.0386 28.1125H90.2135V29.3387H90.3007Z" fill="var(--fill-0, #1E1919)"/>
<path id="Subtract" d="M17.4834 0C25.7004 -3.21258e-10 29.8087 0.000217094 32.3438 2.54004L32.4316 2.62793C34.9664 5.16787 34.9668 9.28408 34.9668 17.5166C34.9668 25.7494 34.9667 29.8663 32.4316 32.4062L32.3438 32.4932C29.8087 35.033 25.7004 35.0332 17.4834 35.0332C9.26622 35.0332 5.1571 35.0331 2.62207 32.4932L2.53516 32.4062C7.60444e-05 29.8663 0 25.7494 0 17.5166C0 9.28397 0.000266536 5.16786 2.53516 2.62793L2.62207 2.54004C5.1571 0.000113629 9.26622 0 17.4834 0ZM29.0225 22.7715C28.8476 24.5232 28.5851 25.6625 27.8857 26.626C27.5362 27.0637 27.0991 27.5013 26.6621 27.8516C25.7005 28.5522 24.4763 28.9026 22.8154 28.9902V30.6543C26.1372 30.6543 28.0604 30.479 29.2842 29.2529C30.508 28.0268 30.6836 26.1876 30.6836 22.8594H29.0225V22.7715ZM4.5459 22.7715C4.5459 26.0993 4.80818 28.0265 5.94434 29.165C7.16815 30.3912 9.09177 30.5664 12.501 30.5664V28.9902C10.7528 28.8151 9.52893 28.5521 8.56738 27.8516C8.1303 27.5012 7.69241 27.0638 7.34277 26.626C6.64344 25.6625 6.29443 24.5232 6.20703 22.7715H4.5459ZM17.5703 8.58594C13.0246 8.58594 9.35254 12.4401 9.35254 17.082C9.44018 22.1616 13.5492 26.2773 18.7939 26.2773C21.329 26.2773 23.6023 25.3148 25.3506 23.7383L23.9512 22.1611C22.5525 23.3873 20.7166 24.1758 18.7061 24.1758C14.5105 24.1756 11.3635 20.8478 11.3633 17.082C11.3633 13.4911 14.1611 10.6006 17.5703 10.6006C20.8046 10.6007 23.165 13.1408 23.165 15.9434C23.1648 18.5707 21.1536 20.6729 18.7061 20.6729C16.4336 20.6726 14.8606 18.921 14.8604 17.082C14.8604 15.418 16.1713 14.1036 17.6572 14.1035C18.9684 14.1035 19.7557 15.0669 19.7559 16.0303C19.7559 16.8185 19.2305 17.2568 18.7061 17.2568C18.5315 17.2568 18.4438 17.2564 18.3564 17.1689C18.5313 16.9938 18.6187 16.6436 18.5312 16.3809C18.4438 15.8555 17.9199 15.4175 17.3955 15.5049C17.013 15.5815 16.6969 15.8593 16.5654 16.0449L16.46 16.2207C16.3261 16.4686 16.2588 16.7754 16.2588 17.082C16.2591 18.3953 17.4825 19.2713 18.7061 19.2715C20.4542 19.2715 21.7654 17.6948 21.7656 15.9434C21.7656 13.7537 19.9301 12.002 17.6572 12.002C14.9475 12.0021 12.8496 14.2792 12.8496 16.9941C12.8497 20.0593 15.4719 22.6863 18.7061 22.6865C22.3774 22.6865 25.1746 19.6217 25.1748 15.9434C25.1748 12.0022 21.8536 8.58608 17.5703 8.58594ZM12.501 4.55566C9.09172 4.55566 7.16821 4.73088 5.94434 5.95703C4.72076 7.27077 4.54635 9.11 4.63379 12.5254H6.20703C6.2945 10.6863 6.64444 9.46045 7.34375 8.49707C7.69344 8.05915 8.1303 7.62081 8.56738 7.27051C9.52893 6.56994 10.7527 6.30701 12.501 6.13184V4.55566ZM22.7285 6.13184C24.4765 6.30701 25.6127 6.56998 26.5742 7.27051C27.0113 7.62081 27.4482 8.05915 27.7979 8.49707C28.4972 9.46045 28.8472 10.6863 28.9346 12.5254H30.5957C30.5957 9.11003 30.4208 7.18318 29.1973 5.95703C27.9734 4.73092 26.1375 4.55568 22.7285 4.55566V6.13184Z" fill="var(--fill-0, #1E1919)"/>
</g>
</svg>
