<svg preserveAspectRatio="none" width="100%" height="100%" overflow="visible" style="display: block;" viewBox="0 0 51.7124 35.0661" fill="none" xmlns="http://www.w3.org/2000/svg">
<g id="Group">
<g id="Group_2">
<path id="Vector" d="M32.557 34.7454L28.7187 28.3045L24.9598 34.7454H20.4596L26.241 25.044L20.3484 16.0375H25.0498L28.8246 22.0508L32.4247 16.0375H36.9248L31.1276 25.338L37.0837 34.7454H32.557Z" fill="var(--fill-0, #1E1919)"/>
<path id="Vector_2" d="M51.7124 28.3847C51.7124 32.5005 48.6417 35.0661 44.6181 35.0661C41.0709 35.0661 38.0849 33.0884 37.7937 28.7856H41.6321C41.8968 30.6564 43.3792 31.4582 44.994 31.4582C47.0058 31.4582 47.8741 30.0952 47.8741 28.3313C47.8741 26.4872 46.524 25.338 44.6445 25.338C43.0827 25.338 42.0504 26.0863 41.5739 26.8881H37.9049L39.1729 16.0375H51.2399L50.8375 19.6722H42.2052L41.8624 23.2628C41.8624 23.2628 42.769 22.1844 45.5168 22.1844C48.827 22.1844 51.7124 24.428 51.7124 28.3847Z" fill="var(--fill-0, #1E1919)"/>
</g>
<path id="Vector_3" d="M38.2472 13.7009C36.2023 5.6538 29.7155 0 16.2534 0H0L2.20639 15.0625C3.86615 28.6539 9.01483 33.0262 18.1263 34.6364C18.1686 34.6431 18.4572 34.6845 18.4612 34.3437C18.4625 34.2208 18.3857 34.1152 18.2798 34.0698C12.1213 31.452 11.4184 22.8664 10.1028 14.2514L9.08499 7.38562H18.3632C26.9174 7.38562 33.5221 7.24932 37.7032 13.916C37.7654 14.0096 37.862 14.079 37.9772 14.079C38.1387 14.079 38.2591 13.9468 38.2591 13.7837C38.2591 13.7543 38.2551 13.7263 38.2472 13.7009Z" fill="var(--fill-0, #1E1919)"/>
</g>
</svg>
