<svg preserveAspectRatio="none" width="100%" height="100%" overflow="visible" style="display: block;" viewBox="0 0 15 15" fill="none" xmlns="http://www.w3.org/2000/svg">
<g id="assigned">
<path id="Shape" opacity="0.402231" fill-rule="evenodd" clip-rule="evenodd" d="M7.5 0C3.3665 0 0 3.3665 0 7.5C0 11.6335 3.3665 15 7.5 15H11.25V13.5H7.5C4.177 13.5 1.5 10.823 1.5 7.5C1.5 4.177 4.177 1.5 7.5 1.5C10.823 1.5 13.5 4.177 13.5 7.5V8.625C13.5 9.25561 13.0056 9.75 12.375 9.75C11.7444 9.75 11.25 9.25561 11.25 8.625V7.5C11.25 5.43782 9.56218 3.75 7.5 3.75C5.43782 3.75 3.75 5.43782 3.75 7.5C3.75 9.56218 5.43782 11.25 7.5 11.25C8.56017 11.25 9.51589 10.7992 10.1997 10.0854C10.673 10.7856 11.4733 11.25 12.375 11.25C13.8159 11.25 15 10.0659 15 8.625V7.5C15 3.3665 11.6335 0 7.5 0ZM7.50195 5.25C8.75348 5.25 9.75195 6.24848 9.75195 7.5C9.75195 8.75152 8.75348 9.75 7.50195 9.75C6.25043 9.75 5.25195 8.75152 5.25195 7.5C5.25195 6.24848 6.25043 5.25 7.50195 5.25Z" fill="var(--fill-0, #1F1914)" fill-opacity="0.5"/>
</g>
</svg>
