<svg preserveAspectRatio="none" width="100%" height="100%" overflow="visible" style="display: block;" viewBox="0 0 23.5719 19.4811" fill="none" xmlns="http://www.w3.org/2000/svg">
<g id="Union">
<path d="M17.5589 3.84698C20.7469 3.84708 23.3312 6.43143 23.3314 9.61944V13.4681C23.3312 16.656 20.7469 19.2404 17.5589 19.2405H6.01299C2.82524 19.2401 0.2407 16.6559 0.24053 13.4681V9.61944C0.240672 6.43161 2.82522 3.84736 6.01299 3.84698H17.5589ZM6.01299 5.7708C3.88795 5.77119 2.1645 7.49434 2.16436 9.61944V13.4681C2.16453 15.5931 3.88797 17.3163 6.01299 17.3167H17.5589C19.6842 17.3166 21.4074 15.5933 21.4075 13.4681V9.61944C21.4074 7.49416 19.6842 5.77091 17.5589 5.7708H6.01299ZM7.83037 8.26494C9.42433 8.26494 10.7169 9.55678 10.7171 11.1507C10.7168 12.7446 9.42432 14.0374 7.83037 14.0374C6.23664 14.0372 4.94487 12.7444 4.94463 11.1507C4.94485 9.55694 6.23663 8.26519 7.83037 8.26494ZM15.387 8.26494C16.981 8.26494 18.2735 9.55678 18.2737 11.1507C18.2735 12.7446 16.981 14.0374 15.387 14.0374C13.7934 14.037 12.5015 12.7443 12.5013 11.1507C12.5015 9.55705 13.7934 8.26537 15.387 8.26494ZM7.83037 10.1888C7.29936 10.189 6.86868 10.6197 6.86846 11.1507C6.8687 11.6817 7.29937 12.1133 7.83037 12.1136C8.36159 12.1136 8.79302 11.6818 8.79326 11.1507C8.79304 10.6195 8.3616 10.1888 7.83037 10.1888ZM15.387 10.1888C14.8562 10.1892 14.4253 10.6198 14.4251 11.1507C14.4253 11.6816 14.8562 12.1132 15.387 12.1136C15.9182 12.1136 16.3497 11.6818 16.3499 11.1507C16.3497 10.6195 15.9182 10.1888 15.387 10.1888ZM11.5755 0.24053C12.271 0.240782 12.8351 0.804714 12.8353 1.5003V2.46221C12.8353 3.15788 12.2711 3.72172 11.5755 3.72198C10.8797 3.72198 10.3157 3.15804 10.3157 2.46221V1.5003C10.3158 0.804559 10.8797 0.24053 11.5755 0.24053Z" fill="var(--fill-0, #00CC37)"/>
<path d="M17.5589 3.84698L17.5589 3.60645H17.5589V3.84698ZM23.3314 9.61944H23.5719V9.61943L23.3314 9.61944ZM23.3314 13.4681L23.5719 13.4681V13.4681H23.3314ZM17.5589 19.2405V19.4811H17.5589L17.5589 19.2405ZM6.01299 19.2405L6.01296 19.4811H6.01299V19.2405ZM0.24053 13.4681H0V13.4681L0.24053 13.4681ZM0.24053 9.61944L0 9.61943V9.61944H0.24053ZM6.01299 3.84698V3.60645H6.01296L6.01299 3.84698ZM6.01299 5.7708V5.53027H6.01295L6.01299 5.7708ZM2.16436 9.61944L1.92383 9.61942V9.61944H2.16436ZM2.16436 13.4681H1.92383V13.4681L2.16436 13.4681ZM6.01299 17.3167L6.01295 17.5572H6.01299V17.3167ZM17.5589 17.3167V17.5572H17.5589L17.5589 17.3167ZM21.4075 13.4681L21.6481 13.4681V13.4681H21.4075ZM21.4075 9.61944H21.6481V9.61942L21.4075 9.61944ZM17.5589 5.7708L17.5589 5.53027H17.5589V5.7708ZM7.83037 8.26494V8.02441H7.83034L7.83037 8.26494ZM10.7171 11.1507L10.9576 11.1507V11.1507L10.7171 11.1507ZM7.83037 14.0374L7.83034 14.2779H7.83037V14.0374ZM4.94463 11.1507L4.7041 11.1507V11.1507L4.94463 11.1507ZM15.387 8.26494V8.02441H15.387L15.387 8.26494ZM18.2737 11.1507L18.5143 11.1507V11.1507L18.2737 11.1507ZM15.387 14.0374L15.387 14.2779H15.387V14.0374ZM12.5013 11.1507L12.2607 11.1507V11.1507L12.5013 11.1507ZM7.83037 10.1888V9.94824H7.83026L7.83037 10.1888ZM6.86846 11.1507L6.62793 11.1506V11.1508L6.86846 11.1507ZM7.83037 12.1136L7.83026 12.3541H7.83037V12.1136ZM8.79326 11.1507L9.03379 11.1508V11.1506L8.79326 11.1507ZM15.387 10.1888V9.94824H15.3868L15.387 10.1888ZM14.4251 11.1507L14.1846 11.1506V11.1508L14.4251 11.1507ZM15.387 12.1136L15.3868 12.3541H15.387V12.1136ZM16.3499 11.1507L16.5904 11.1508V11.1506L16.3499 11.1507ZM11.5755 0.24053L11.5756 0H11.5755V0.24053ZM12.8353 1.5003H13.0758V1.50026L12.8353 1.5003ZM11.5755 3.72198V3.96251L11.5756 3.96251L11.5755 3.72198ZM10.3157 1.5003L10.0752 1.50026V1.5003H10.3157ZM17.5589 3.84698L17.5589 4.08751C20.6141 4.0876 23.0907 6.56427 23.0908 9.61945L23.3314 9.61944L23.5719 9.61943C23.5717 6.29859 20.8797 3.60655 17.5589 3.60645L17.5589 3.84698ZM23.3314 9.61944H23.0908V13.4681H23.3314H23.5719V9.61944H23.3314ZM23.3314 13.4681L23.0908 13.4681C23.0907 16.5232 20.614 18.9999 17.5589 19L17.5589 19.2405L17.5589 19.4811C20.8797 19.481 23.5717 16.7889 23.5719 13.4681L23.3314 13.4681ZM17.5589 19.2405V19H6.01299V19.2405V19.4811H17.5589V19.2405ZM6.01299 19.2405L6.01302 19C2.95807 18.9996 0.481223 16.523 0.48106 13.4681L0.24053 13.4681L0 13.4681C0.000176743 16.7887 2.69241 19.4807 6.01296 19.4811L6.01299 19.2405ZM0.24053 13.4681H0.48106V9.61944H0.24053H0V13.4681H0.24053ZM0.24053 9.61944L0.48106 9.61945C0.481196 6.56447 2.95805 4.08788 6.01302 4.08751L6.01299 3.84698L6.01296 3.60645C2.69239 3.60685 0.000147358 6.29875 0 9.61943L0.24053 9.61944ZM6.01299 3.84698V4.08751H17.5589V3.84698V3.60645H6.01299V3.84698ZM6.01299 5.7708L6.01295 5.53027C3.75513 5.53068 1.92398 7.36147 1.92383 9.61942L2.16436 9.61944L2.40489 9.61945C2.40502 7.62721 4.02077 6.0117 6.01303 6.01133L6.01299 5.7708ZM2.16436 9.61944H1.92383V13.4681H2.16436H2.40489V9.61944H2.16436ZM2.16436 13.4681L1.92383 13.4681C1.92401 15.726 3.75514 17.5568 6.01295 17.5572L6.01299 17.3167L6.01303 17.0762C4.02079 17.0758 2.40505 15.4603 2.40489 13.4681L2.16436 13.4681ZM6.01299 17.3167V17.5572H17.5589V17.3167V17.0762H6.01299V17.3167ZM17.5589 17.3167L17.5589 17.5572C19.817 17.5571 21.6479 15.7262 21.6481 13.4681L21.4075 13.4681L21.167 13.4681C21.1668 15.4605 19.5513 17.0761 17.5589 17.0762L17.5589 17.3167ZM21.4075 13.4681H21.6481V9.61944H21.4075H21.167V13.4681H21.4075ZM21.4075 9.61944L21.6481 9.61942C21.6479 7.36132 19.817 5.53038 17.5589 5.53027L17.5589 5.7708L17.5589 6.01133C19.5513 6.01143 21.1669 7.627 21.167 9.61945L21.4075 9.61944ZM17.5589 5.7708V5.53027H6.01299V5.7708V6.01133H17.5589V5.7708ZM7.83037 8.26494V8.50547C9.29156 8.50547 10.4764 9.6897 10.4766 11.1507L10.7171 11.1507L10.9576 11.1507C10.9574 9.42386 9.5571 8.02441 7.83037 8.02441V8.26494ZM10.7171 11.1507L10.4766 11.1507C10.4763 12.6118 9.29144 13.7969 7.83037 13.7969V14.0374V14.2779C9.55719 14.2779 10.9574 12.8774 10.9576 11.1507L10.7171 11.1507ZM7.83037 14.0374L7.83041 13.7969C6.3696 13.7966 5.18538 12.6117 5.18516 11.1507L4.94463 11.1507L4.7041 11.1507C4.70436 12.8772 6.10369 14.2777 7.83034 14.2779L7.83037 14.0374ZM4.94463 11.1507L5.18516 11.1507C5.18537 9.68979 6.36948 8.5057 7.83041 8.50547L7.83037 8.26494L7.83034 8.02441C6.10379 8.02468 4.70434 9.42408 4.7041 11.1507L4.94463 11.1507ZM15.387 8.26494V8.50547C16.8482 8.50547 18.033 9.6897 18.0332 11.1507L18.2737 11.1507L18.5143 11.1507C18.514 9.42386 17.1137 8.02441 15.387 8.02441V8.26494ZM18.2737 11.1507L18.0332 11.1507C18.033 12.6118 16.8481 13.7969 15.387 13.7969V14.0374V14.2779C17.1138 14.2779 18.514 12.8774 18.5143 11.1507L18.2737 11.1507ZM15.387 14.0374L15.3871 13.7969C13.9264 13.7965 12.742 12.6115 12.7418 11.1507L12.5013 11.1507L12.2607 11.1507C12.261 12.8771 13.6605 14.2775 15.387 14.2779L15.387 14.0374ZM12.5013 11.1507L12.7418 11.1507C12.742 9.68992 13.9262 8.50587 15.3871 8.50547L15.387 8.26494L15.387 8.02441C13.6606 8.02488 12.261 9.42417 12.2607 11.1507L12.5013 11.1507ZM7.83037 10.1888L7.83026 9.94824C7.16651 9.94855 6.62821 10.4868 6.62793 11.1506L6.86846 11.1507L7.10899 11.1508C7.10916 10.7525 7.43221 10.4295 7.83049 10.4293L7.83037 10.1888ZM6.86846 11.1507L6.62793 11.1508C6.62823 11.8142 7.16619 12.3538 7.83026 12.3541L7.83037 12.1136L7.83049 11.873C7.43255 11.8729 7.10917 11.5491 7.10899 11.1506L6.86846 11.1507ZM7.83037 12.1136V12.3541C8.49454 12.3541 9.03349 11.8146 9.03379 11.1508L8.79326 11.1507L8.55273 11.1506C8.55255 11.5491 8.22864 11.873 7.83037 11.873V12.1136ZM8.79326 11.1507L9.03379 11.1506C9.03352 10.4864 8.49422 9.94824 7.83037 9.94824V10.1888V10.4293C8.22898 10.4293 8.55257 10.7526 8.55273 11.1508L8.79326 11.1507ZM15.387 10.1888L15.3868 9.94824C14.7234 9.94877 14.1848 10.4868 14.1846 11.1506L14.4251 11.1507L14.6656 11.1508C14.6658 10.7527 14.9889 10.4296 15.3872 10.4293L15.387 10.1888ZM14.4251 11.1507L14.1846 11.1508C14.1849 11.8142 14.723 12.3536 15.3868 12.3541L15.387 12.1136L15.3872 11.873C14.9893 11.8727 14.6658 11.549 14.6656 11.1506L14.4251 11.1507ZM15.387 12.1136V12.3541C16.0512 12.3541 16.5901 11.8146 16.5904 11.1508L16.3499 11.1507L16.1094 11.1506C16.1092 11.5491 15.7853 11.873 15.387 11.873V12.1136ZM16.3499 11.1507L16.5904 11.1506C16.5902 10.4864 16.0509 9.94824 15.387 9.94824V10.1888V10.4293C15.7856 10.4293 16.1092 10.7526 16.1094 11.1508L16.3499 11.1507ZM11.5755 0.24053L11.5754 0.48106C12.1382 0.481264 12.5946 0.937613 12.5947 1.50033L12.8353 1.5003L13.0758 1.50026C13.0757 0.671815 12.4038 0.000299916 11.5756 1.49012e-08L11.5755 0.24053ZM12.8353 1.5003H12.5947V2.46221H12.8353H13.0758V1.5003H12.8353ZM12.8353 2.46221H12.5947C12.5947 3.02496 12.1383 3.48124 11.5754 3.48145L11.5755 3.72198L11.5756 3.96251C12.4039 3.96221 13.0758 3.29081 13.0758 2.46221H12.8353ZM11.5755 3.72198V3.48145C11.0125 3.48145 10.5563 3.0252 10.5563 2.46221H10.3157H10.0752C10.0752 3.29088 10.7468 3.96251 11.5755 3.96251V3.72198ZM10.3157 2.46221H10.5563V1.5003H10.3157H10.0752V2.46221H10.3157ZM10.3157 1.5003L10.5563 1.50033C10.5563 0.937371 11.0126 0.48106 11.5755 0.48106V0.24053V0C10.7469 0 10.0753 0.671746 10.0752 1.50026L10.3157 1.5003Z" fill="var(--stroke-0, #1E1919)"/>
</g>
</svg>
