<svg preserveAspectRatio="none" width="100%" height="100%" overflow="visible" style="display: block;" viewBox="0 0 15 11.25" fill="none" xmlns="http://www.w3.org/2000/svg">
<g id="all">
<path id="Shape" opacity="0.396569" d="M11.8271 0C12.6023 8.87018e-05 13.2244 0.527408 13.4678 1.16016L14.9639 5.44922L15 5.53711V9C14.9999 10.237 13.9611 11.25 12.6924 11.25H2.30762C1.03892 11.25 8.66148e-05 10.2369 0 9V5.53711L0.0361328 5.44922L1.47852 1.17773V1.16016C1.73769 0.490018 2.3687 0 3.11914 0H11.8271ZM3.12012 1.13086C2.94653 1.13116 2.64935 1.3244 2.56152 1.55273L1.17383 5.63086H5.77051C5.77055 6.58662 6.52166 7.31836 7.50195 7.31836C8.48204 7.31815 9.23238 6.58648 9.23242 5.63086H13.8301L12.3877 1.55273C12.284 1.28467 12.0918 1.13086 11.8281 1.13086H3.12012Z" fill="var(--fill-0, #1F1914)" fill-opacity="0.5"/>
</g>
</svg>
