<svg overflow="visible" style="display: block;" viewBox="0 0 94.4146 21.65" fill="none" xmlns="http://www.w3.org/2000/svg">
<g id="Logo" style="mix-blend-mode:multiply" opacity="0.8" filter="url(#filter0_g_0_431)">
<path id="Vector" d="M49.2556 8.3543L47.3829 8.3543L47.3829 5.64468L48.342 5.64468C49.0997 5.64468 49.4797 5.27043 49.4797 4.52082L49.4797 2.4945L52.7131 2.4945L52.7131 5.64468L55.5893 5.64468L55.5893 8.37566L52.7131 8.37566L52.7131 13.0891C52.7131 13.9264 53.092 14.3445 54.0955 14.3445C54.4971 14.3445 55.0102 14.2782 55.6337 14.168L55.6337 16.8113C54.7189 17.0316 53.6267 17.0979 53.0021 17.0979C50.5048 17.0979 49.2556 15.9527 49.2556 13.7713L49.2556 8.35206L49.2556 8.3543Z" fill="var(--fill-0, #1E1919)"/>
<path id="Vector_2" d="M59.3368 21.2636C58.7565 21.2636 58.1991 21.1759 57.7087 20.9995L57.7087 18.4224C58.0432 18.4887 58.3106 18.51 58.6678 18.51C59.8055 18.51 60.4517 18.1796 60.7634 17.276C60.8306 17.0557 60.8977 16.8793 60.8977 16.6815C60.8977 16.351 60.7191 16.0869 60.4961 15.5362L56.3264 5.62347L60.1616 5.62347L62.8374 12.6062L65.2016 5.62347L68.8581 5.62347L64.2425 17.5412C63.239 20.1183 61.8784 21.2636 59.3368 21.2636Z" fill="var(--fill-0, #1E1919)"/>
<path id="Vector_3" d="M69.3924 20.9973L69.3924 5.64385L72.826 5.64385L72.826 7.07569C73.5837 5.99675 74.7658 5.35725 76.4165 5.35725C79.3154 5.35725 81.3223 7.75789 81.3223 11.2172C81.3223 14.6766 79.3154 17.0986 76.4165 17.0986C74.8113 17.0986 73.6292 16.4815 72.8715 15.4464L72.8715 20.9973L69.3924 20.9973ZM77.7545 11.2172C77.7545 9.21221 76.8398 8.00065 75.3244 8.00065C73.809 8.00065 72.8044 9.18973 72.8044 11.2172C72.8044 13.2447 73.8522 14.4552 75.3244 14.4552C76.7965 14.4552 77.7545 13.2436 77.7545 11.2172Z" fill="var(--fill-0, #1E1919)"/>
<path id="Vector_4" d="M94.0009 12.2049L85.5271 12.2049C85.7729 13.7694 86.6648 14.5842 88.1143 14.5842C89.318 14.5842 90.2327 14.011 90.4557 13.1299L93.845 13.2838C93.2432 15.7507 90.9233 17.0949 88.1143 17.0949C84.4121 17.0949 82.0047 14.628 82.0047 11.2351C82.0047 7.84212 84.5248 5.3539 88.1143 5.3539C91.9052 5.3539 94.3138 7.75446 94.0009 12.2049ZM90.5001 10.0022C90.2544 8.48272 89.318 7.86572 88.1143 7.86572C86.7763 7.86572 85.8844 8.59286 85.5726 10.0022L90.5012 10.0022L90.5001 10.0022Z" fill="var(--fill-0, #1E1919)"/>
<path id="Vector_5" d="M5.35932 16.8437L5.35932 4.66178L0.386464 4.66178L0.386464 1.42384L14.1002 1.42384L14.1002 4.66178L9.12735 4.66178L9.12735 16.8437L5.35932 16.8437Z" fill="var(--fill-0, #1E1919)"/>
<path id="Vector_6" d="M22.8611 12.2396L14.3873 12.2396C14.6331 13.804 15.525 14.6188 16.9745 14.6188C18.1782 14.6188 19.093 14.0457 19.316 13.1646L22.7052 13.3185C22.1034 15.7854 19.7836 17.1295 16.9745 17.1295C13.2723 17.1295 10.8649 14.6627 10.8649 11.2697C10.8649 7.87681 13.385 5.38858 16.9745 5.38858C20.7654 5.38858 23.174 7.78914 22.8611 12.2396ZM19.3592 10.0369C19.1134 8.51741 18.1771 7.90041 16.9734 7.90041C15.6354 7.90041 14.7434 8.62755 14.4317 10.0369L19.3603 10.0369L19.3592 10.0369Z" fill="var(--fill-0, #1E1919)"/>
<path id="Vector_7" d="M34.4705 12.7672L33.9756 12.9415C32.8629 13.3786 29.6956 14.316 28.4271 13.4157L28.4168 13.409C27.8639 13.0527 26.9321 11.8119 26.9083 7.51867C26.9412 6.02501 27.1233 4.40436 28.2268 3.69406C28.4953 3.54458 28.7923 3.51536 29.0414 3.61426C29.2724 3.70642 29.4373 3.89636 29.5204 4.17396C29.6854 4.65948 29.6148 5.46082 29.3372 6.2644C28.9902 7.26691 28.6193 7.87045 28.1495 8.63357C27.9424 8.96961 27.7081 9.35061 27.4532 9.80466L27.4088 9.88334L27.4191 9.97325C27.6876 12.4132 28.6148 13.1269 28.6148 13.1269L28.8162 12.8392C28.8241 12.8279 28.8423 12.8032 28.8696 12.7661C29.889 11.3658 32.3009 7.87606 32.698 5.72718C32.9551 4.34254 32.6308 2.90621 31.8288 1.88459C31.1268 0.989974 30.1393 0.47523 28.972 0.394309C27.8514 0.324628 26.7797 0.720236 25.8695 1.53731C25.0845 2.24199 24.4759 3.21528 24.155 4.27961C23.8103 5.42148 23.7534 6.58808 23.7432 7.57711C23.6988 10.3408 24.1266 14.0339 26.4077 15.9288C27.369 16.7267 28.5761 17.1313 29.996 17.1313C30.5102 17.1313 31.0415 17.0549 31.6035 16.9751L31.6422 16.9695C32.9551 16.7818 35.2919 15.7242 35.3909 15.6793L35.7868 15.4904C35.3693 15.1038 34.7242 14.0676 34.4728 12.7706L34.4705 12.7672Z" fill="var(--fill-0, #1E1919)"/>
<path id="Vector_8" d="M47.0297 12.2129L38.5559 12.2129C38.8017 13.7773 39.6936 14.5921 41.1431 14.5921C42.3468 14.5921 43.2616 14.0189 43.4846 13.1378L46.8738 13.2918C46.272 15.7587 43.9522 17.1028 41.1431 17.1028C37.4409 17.1028 35.0335 14.6359 35.0335 11.243C35.0335 7.85008 37.5536 5.36186 41.1431 5.36186C44.934 5.36186 47.3426 7.76242 47.0297 12.2129ZM43.5278 10.0101C43.282 8.49068 42.3457 7.87368 41.142 7.87368C39.804 7.87368 38.912 8.60082 38.6003 10.0101L43.5289 10.0101L43.5278 10.0101Z" fill="var(--fill-0, #1E1919)"/>
</g>
<defs>
<filter id="filter0_g_0_431" x="-1.37952e-08" y="8.92032e-09" width="94.4146" height="21.65" filterUnits="userSpaceOnUse" color-interpolation-filters="sRGB">
<feFlood flood-opacity="0" result="BackgroundImageFix"/>
<feBlend mode="normal" in="SourceGraphic" in2="BackgroundImageFix" result="shape"/>
<feTurbulence type="fractalNoise" baseFrequency="0.99900001287460327 0.99900001287460327" numOctaves="3" seed="8032" />
<feDisplacementMap in="shape" scale="0.77292835712432861" xChannelSelector="R" yChannelSelector="G" result="displacedImage" />
<feMerge result="effect1_texture_0_431">
<feMergeNode in="displacedImage"/>
</feMerge>
</filter>
</defs>
</svg>
