<svg preserveAspectRatio="none" width="100%" height="100%" overflow="visible" style="display: block;" viewBox="0 0 247.705 35.0265" fill="none" xmlns="http://www.w3.org/2000/svg">
<g id="coral-travel-seeklogo 1" style="mix-blend-mode:hard-light">
<path id="Vector" d="M17.3731 34.6511C7.41773 34.6511 0 27.7576 0 18.0695C0 8.56771 7.22253 1.48793 17.3731 1.48793C24.5956 1.48793 28.6949 5.21413 29.4757 5.95937L26.3525 10.8034C25.3765 9.87188 22.2532 7.44985 17.9587 7.44985C12.1026 7.44985 7.80814 11.735 7.80814 17.6969C7.80814 20.4915 8.78416 23.0999 10.7362 24.963C12.6882 27.0124 15.4211 28.1302 18.3491 28.1302C22.8388 28.1302 26.3525 25.5219 27.7189 24.2177C28.1093 26.2671 28.8901 28.1302 29.8661 29.807C28.1093 31.6701 23.8148 34.6511 17.3731 34.6511Z" fill="var(--fill-0, #1E1919)"/>
<path id="Vector_2" d="M124.345 34.0947C119.075 34.8399 113.999 33.3495 113.999 26.0834V0H120.636V24.9655C120.636 27.7602 121.807 28.878 124.345 28.6917V34.0947Z" fill="var(--fill-0, #1E1919)"/>
<path id="Vector_3" d="M45.093 8.19788C37.0896 8.19788 30.4527 13.7872 30.4527 21.4259C30.4527 29.2509 36.8944 34.6539 45.093 34.6539C53.0963 34.6539 59.7333 29.2509 59.7333 21.4259C59.7333 13.6009 53.2915 8.19788 45.093 8.19788ZM45.093 29.2509C40.7985 29.2509 37.0897 26.0836 37.0897 21.4259C37.0897 16.7681 40.7985 13.6009 45.093 13.6009C49.3875 13.6009 52.9011 16.7681 52.9011 21.4259C53.0963 26.0836 49.3875 29.2509 45.093 29.2509Z" fill="var(--fill-0, #1E1919)"/>
<path id="Vector_4" d="M79.0585 8.38231V14.5305C71.6408 13.2264 69.6888 20.3061 69.6888 23.846V34.0931H63.0518V8.75492H69.4936V14.7168C70.6648 10.9906 75.1545 7.63707 79.0585 8.38231Z" fill="var(--fill-0, #1E1919)"/>
<path id="Vector_5" d="M102.287 8.75499V10.8044C99.9441 9.12761 97.016 8.00975 93.8928 8.00975C85.6942 8.00975 79.8381 13.599 79.8381 21.2378C79.8381 24.7776 81.2045 27.9449 83.547 30.3669C86.0846 32.9753 89.7935 34.4658 93.8928 34.4658C97.2112 34.4658 99.9441 33.5342 102.287 31.8574V33.9068H108.533V8.75499H102.287ZM94.4784 29.2491C90.1839 29.2491 86.475 26.0818 86.475 21.4241C86.475 16.7663 89.9887 13.599 94.4784 13.599C98.7729 13.599 102.287 16.7663 102.287 21.4241C102.287 25.8955 98.7729 29.2491 94.4784 29.2491Z" fill="var(--fill-0, #1E1919)"/>
<path id="Vector_6" d="M129.42 24.9666C129.42 33.7232 135.472 35.2137 139.571 34.4684V32.6053C136.448 32.9779 131.763 31.8601 131.763 24.9666V10.9934H138.985V8.94397H131.763V1.86419H129.42V24.9666Z" fill="var(--fill-0, #1E1919)"/>
<path id="Vector_7" d="M155.773 10.9925C150.113 9.87465 145.428 16.2092 145.428 23.1026V34.4676H143.085V8.9431H145.428V15.2776C146.794 11.3651 150.503 7.63893 155.773 8.57048V10.9925Z" fill="var(--fill-0, #1E1919)"/>
<path id="Vector_8" d="M247.518 34.4653C245.176 34.8379 241.076 33.9063 241.076 29.0623V0.370558H243.419V28.5033C243.419 32.2295 245.566 32.6022 247.518 32.4159V34.4653Z" fill="var(--fill-0, #1E1919)"/>
<path id="Vector_9" d="M180.758 8.94494V14.5342C178.416 10.808 174.317 8.38601 169.241 8.38601C161.433 8.38601 155.382 14.1616 155.382 21.614C155.382 25.1539 156.748 28.5075 159.286 30.9295C161.824 33.3515 165.337 34.842 169.241 34.842C173.146 34.842 176.659 33.5378 179.197 30.9295C179.782 30.3706 180.368 29.8116 180.758 29.0664V34.0968H183.101V8.94494H180.758ZM169.241 32.9789C162.605 32.9789 157.724 28.1349 157.724 21.8003C157.724 15.4658 162.8 10.6217 169.241 10.6217C175.488 10.6217 180.563 15.2795 180.758 21.4277V22.3593C180.563 28.5075 175.683 32.9789 169.241 32.9789Z" fill="var(--fill-0, #1E1919)"/>
<path id="Vector_10" d="M223.9 8.19788C216.092 8.19788 210.627 13.9735 210.627 21.6122C210.627 25.3384 211.993 28.692 214.531 31.114C217.068 33.7223 220.582 35.0265 224.486 35.0265C228.195 35.0265 231.513 33.7223 234.051 31.3003L232.88 29.4372C230.732 31.6729 227.804 32.9771 224.486 32.9771C217.849 32.9771 212.969 28.133 212.969 21.6122H235.613C236.784 13.7872 231.708 8.19788 223.9 8.19788ZM223.9 10.2473C229.561 10.2473 233.465 14.3461 233.465 19.5628H213.359C214.14 14.1598 218.239 10.2473 223.9 10.2473Z" fill="var(--fill-0, #1E1919)"/>
<path id="Vector_11" d="M207.503 8.9447L199.304 28.6935C198.718 29.9977 198.328 31.4882 198.328 31.4882C198.328 31.4882 197.938 29.9977 197.352 28.6935L189.153 8.9447H186.616L197.157 34.2828H199.304L209.65 8.9447H207.503Z" fill="var(--fill-0, #1E1919)"/>
</g>
</svg>
