<svg overflow="visible" style="display: block;" viewBox="0 0 101 92.668" fill="none" xmlns="http://www.w3.org/2000/svg">
<g id="Union">
<path d="M50.4961 0.5C53.2584 0.5 55.498 2.73967 55.498 5.50195V22.7852H72.999C88.1383 22.7853 100.5 34.9458 100.5 50.0547V64.8994C100.5 80.0082 88.1382 92.1679 72.999 92.168H28.001C12.8618 92.1679 0.500136 80.0082 0.5 64.8994V50.0547C0.5 34.9458 12.8617 22.7852 28.001 22.7852H45.4941V5.50195C45.4942 2.73968 47.7338 0.500014 50.4961 0.5ZM28.001 32.7891C18.2885 32.7891 10.5039 40.5679 10.5039 50.0547V64.8994C10.504 74.3861 18.2886 82.165 28.001 82.165H72.999C82.7114 82.1649 90.4969 74.3861 90.4971 64.8994V50.0547C90.4971 40.5679 82.7115 32.7892 72.999 32.7891H28.001ZM35.4932 45.0391C42.3486 45.0391 47.9941 50.5539 47.9941 57.4639C47.9939 64.3736 42.3484 69.8877 35.4932 69.8877C28.6379 69.8876 22.9924 64.3736 22.9922 57.4639C22.9922 50.5539 28.6378 45.0391 35.4932 45.0391ZM65.4941 45.0391C72.3496 45.0391 77.9951 50.5539 77.9951 57.4639C77.9949 64.3736 72.3494 69.8877 65.4941 69.8877C58.639 69.8875 52.9934 64.3735 52.9932 57.4639C52.9932 50.554 58.6389 45.0393 65.4941 45.0391ZM35.4932 55.043C34.0654 55.043 32.9961 56.1753 32.9961 57.4639C32.9963 58.7523 34.0655 59.8837 35.4932 59.8838C36.9209 59.8838 37.99 58.7523 37.9902 57.4639C37.9902 56.1752 36.921 55.043 35.4932 55.043ZM65.4941 55.043C64.0665 55.0432 62.9971 56.1754 62.9971 57.4639C62.9973 58.7522 64.0666 59.8836 65.4941 59.8838C66.9218 59.8838 67.991 58.7523 67.9912 57.4639C67.9912 56.1752 66.922 55.043 65.4941 55.043Z" fill="var(--fill-0, #00CC37)"/>
<path d="M50.4961 0.5V0H50.4961L50.4961 0.5ZM55.498 5.50195H55.998V5.50194L55.498 5.50195ZM55.498 22.7852H54.998V23.2852H55.498V22.7852ZM72.999 22.7852V22.2852V22.2852V22.7852ZM100.5 64.8994L101 64.8994V64.8994H100.5ZM72.999 92.168V92.668V92.668V92.168ZM28.001 92.168L28.001 92.668H28.001V92.168ZM0.5 64.8994H0V64.8994L0.5 64.8994ZM28.001 22.7852V22.2852H28.001L28.001 22.7852ZM45.4941 22.7852V23.2852H45.9941V22.7852H45.4941ZM45.4941 5.50195L44.9941 5.50194V5.50195H45.4941ZM28.001 32.7891V32.2891H28.001L28.001 32.7891ZM10.5039 64.8994H10.0039V64.8994L10.5039 64.8994ZM28.001 82.165L28.001 82.665H28.001V82.165ZM72.999 82.165V82.665H72.999L72.999 82.165ZM90.4971 64.8994L90.9971 64.8994V64.8994H90.4971ZM72.999 32.7891L72.999 32.2891H72.999V32.7891ZM35.4932 45.0391V44.5391H35.4932L35.4932 45.0391ZM47.9941 57.4639L48.4941 57.4639V57.4639H47.9941ZM35.4932 69.8877L35.4932 70.3877H35.4932V69.8877ZM22.9922 57.4639H22.4922V57.4639L22.9922 57.4639ZM65.4941 45.0391V44.5391H65.4941L65.4941 45.0391ZM77.9951 57.4639L78.4951 57.4639V57.4639H77.9951ZM65.4941 69.8877L65.4941 70.3877H65.4941V69.8877ZM52.9932 57.4639H52.4932V57.4639L52.9932 57.4639ZM35.4932 55.043V54.543H35.4931L35.4932 55.043ZM32.9961 57.4639H32.4961V57.464L32.9961 57.4639ZM35.4932 59.8838L35.4931 60.3838H35.4932V59.8838ZM37.9902 57.4639L38.4902 57.464V57.4639H37.9902ZM65.4941 55.043V54.543H65.4941L65.4941 55.043ZM62.9971 57.4639H62.4971V57.464L62.9971 57.4639ZM65.4941 59.8838L65.4941 60.3838H65.4941V59.8838ZM67.9912 57.4639L68.4912 57.464V57.4639H67.9912ZM50.4961 0.5V1C52.9822 1 54.998 3.0158 54.998 5.50197L55.498 5.50195L55.998 5.50194C55.998 2.46354 53.5346 0 50.4961 0V0.5ZM55.498 5.50195H54.998V22.7852H55.498H55.998V5.50195H55.498ZM55.498 22.7852V23.2852H72.999V22.7852V22.2852H55.498V22.7852ZM72.999 22.7852V23.2852C87.8673 23.2853 100 35.2271 100 50.0547H100.5H101C101 34.6645 88.4092 22.2853 72.999 22.2852V22.7852ZM100.5 50.0547H100V64.8994H100.5H101V50.0547H100.5ZM100.5 64.8994L100 64.8994C99.9999 79.7269 87.8672 91.6679 72.999 91.668V92.168V92.668C88.4091 92.6679 101 80.2895 101 64.8994L100.5 64.8994ZM72.999 92.168V91.668H28.001V92.168V92.668H72.999V92.168ZM28.001 92.168L28.001 91.668C13.1328 91.6679 1.00013 79.7269 1 64.8994L0.5 64.8994L0 64.8994C0.000138819 80.2895 12.5908 92.6679 28.001 92.668L28.001 92.168ZM0.5 64.8994H1V50.0547H0.5H0V64.8994H0.5ZM0.5 50.0547H1C1 35.227 13.1327 23.2852 28.001 23.2852L28.001 22.7852L28.001 22.2852C12.5907 22.2852 0 34.6645 0 50.0547H0.5ZM28.001 22.7852V23.2852H45.4941V22.7852V22.2852H28.001V22.7852ZM45.4941 22.7852H45.9941V5.50195H45.4941H44.9941V22.7852H45.4941ZM45.4941 5.50195L45.9941 5.50197C45.9942 3.01581 48.01 1.00001 50.4961 1L50.4961 0.5L50.4961 0C47.4576 1.58846e-05 44.9942 2.46354 44.9941 5.50194L45.4941 5.50195ZM28.001 32.7891L28.001 32.2891C18.0168 32.2891 10.0039 40.2873 10.0039 50.0547H10.5039H11.0039C11.0039 40.8484 18.5602 33.2891 28.001 33.2891L28.001 32.7891ZM10.5039 50.0547H10.0039V64.8994H10.5039H11.0039V50.0547H10.5039ZM10.5039 64.8994L10.0039 64.8994C10.004 74.6667 18.0169 82.665 28.001 82.665L28.001 82.165L28.001 81.665C18.5603 81.665 11.004 74.1055 11.0039 64.8994L10.5039 64.8994ZM28.001 82.165V82.665H72.999V82.165V81.665H28.001V82.165ZM72.999 82.165L72.999 82.665C82.983 82.6649 90.9969 74.6667 90.9971 64.8994L90.4971 64.8994L89.9971 64.8994C89.9969 74.1055 82.4397 81.6649 72.999 81.665L72.999 82.165ZM90.4971 64.8994H90.9971V50.0547H90.4971H89.9971V64.8994H90.4971ZM90.4971 50.0547H90.9971C90.9971 40.2873 82.9831 32.2892 72.999 32.2891L72.999 32.7891L72.999 33.2891C82.4398 33.2892 89.9971 40.8485 89.9971 50.0547H90.4971ZM72.999 32.7891V32.2891H28.001V32.7891V33.2891H72.999V32.7891ZM35.4932 45.0391V45.5391C42.0779 45.5391 47.4941 50.8354 47.4941 57.4639H47.9941H48.4941C48.4941 50.2724 42.6193 44.5391 35.4932 44.5391V45.0391ZM47.9941 57.4639L47.4941 57.4639C47.4939 64.0921 42.0778 69.3877 35.4932 69.3877V69.8877V70.3877C42.6191 70.3877 48.4939 64.6552 48.4941 57.4639L47.9941 57.4639ZM35.4932 69.8877L35.4932 69.3877C28.9086 69.3876 23.4924 64.092 23.4922 57.4639L22.9922 57.4639L22.4922 57.4639C22.4924 64.6552 28.3673 70.3876 35.4932 70.3877L35.4932 69.8877ZM22.9922 57.4639H23.4922C23.4922 50.8355 28.9085 45.5391 35.4932 45.5391L35.4932 45.0391L35.4932 44.5391C28.3671 44.5391 22.4922 50.2724 22.4922 57.4639H22.9922ZM65.4941 45.0391V45.5391C72.0788 45.5391 77.4951 50.8354 77.4951 57.4639H77.9951H78.4951C78.4951 50.2724 72.6203 44.5391 65.4941 44.5391V45.0391ZM77.9951 57.4639L77.4951 57.4639C77.4949 64.0921 72.0787 69.3877 65.4941 69.3877V69.8877V70.3877C72.6201 70.3877 78.4949 64.6552 78.4951 57.4639L77.9951 57.4639ZM65.4941 69.8877L65.4942 69.3877C58.9097 69.3875 53.4934 64.0919 53.4932 57.4639L52.9932 57.4639L52.4932 57.4639C52.4934 64.6551 58.3684 70.3875 65.4941 70.3877L65.4941 69.8877ZM52.9932 57.4639H53.4932C53.4932 50.8356 58.9096 45.5393 65.4942 45.5391L65.4941 45.0391L65.4941 44.5391C58.3682 44.5393 52.4932 50.2725 52.4932 57.4639H52.9932ZM35.4932 55.043L35.4931 54.543C33.791 54.543 32.4961 55.8974 32.4961 57.4639H32.9961H33.4961C33.4961 56.4532 34.3397 55.543 35.4932 55.543L35.4932 55.043ZM32.9961 57.4639L32.4961 57.464C32.4964 59.0304 33.7913 60.3837 35.4931 60.3838L35.4932 59.8838L35.4932 59.3838C34.3397 59.3837 33.4963 58.4742 33.4961 57.4638L32.9961 57.4639ZM35.4932 59.8838V60.3838C37.1951 60.3838 38.4899 59.0304 38.4902 57.464L37.9902 57.4639L37.4902 57.4638C37.49 58.4742 36.6466 59.3838 35.4932 59.3838V59.8838ZM37.9902 57.4639H38.4902C38.4902 55.8974 37.1954 54.543 35.4932 54.543V55.043V55.543C36.6466 55.543 37.4902 56.4531 37.4902 57.4639H37.9902ZM65.4941 55.043L65.4941 54.543C63.7921 54.5432 62.4971 55.8974 62.4971 57.4639H62.9971H63.4971C63.4971 56.4533 64.3408 55.5431 65.4942 55.543L65.4941 55.043ZM62.9971 57.4639L62.4971 57.464C62.4974 59.0303 63.7924 60.3836 65.4941 60.3838L65.4941 59.8838L65.4942 59.3838C64.3408 59.3836 63.4973 58.4741 63.4971 57.4638L62.9971 57.4639ZM65.4941 59.8838V60.3838C67.1961 60.3838 68.4909 59.0304 68.4912 57.464L67.9912 57.4639L67.4912 57.4638C67.491 58.4742 66.6476 59.3838 65.4941 59.3838V59.8838ZM67.9912 57.4639H68.4912C68.4912 55.8974 67.1964 54.543 65.4941 54.543V55.043V55.543C66.6476 55.543 67.4912 56.4531 67.4912 57.4639H67.9912Z" fill="var(--stroke-0, #1E1919)"/>
</g>
</svg>
