<svg overflow="visible" style="display: block;" viewBox="0 0 24.5 20.248" fill="none" xmlns="http://www.w3.org/2000/svg">
<g id="Union">
<path d="M18.25 3.99805C21.5637 3.99805 24.25 6.68437 24.25 9.99805V13.998C24.25 17.3118 21.5637 19.998 18.25 19.998H6.25C2.93629 19.998 0.25 17.3118 0.25 13.998V9.99805C0.250033 6.68437 2.93631 3.99805 6.25 3.99805H18.25ZM6.25 5.99805C4.04088 5.99805 2.25003 7.78894 2.25 9.99805V13.998C2.25 16.2072 4.04086 17.998 6.25 17.998H18.25C20.4591 17.998 22.25 16.2072 22.25 13.998V9.99805C22.25 7.78894 20.4591 5.99805 18.25 5.99805H6.25ZM8.13867 8.58984C9.79553 8.58984 11.1387 9.93299 11.1387 11.5898C11.1386 13.2466 9.79547 14.5898 8.13867 14.5898C6.48188 14.5898 5.13877 13.2466 5.13867 11.5898C5.13867 9.93299 6.48182 8.58984 8.13867 8.58984ZM15.9932 8.58984C17.65 8.58984 18.9932 9.93299 18.9932 11.5898C18.9931 13.2466 17.65 14.5898 15.9932 14.5898C14.3364 14.5898 12.9933 13.2466 12.9932 11.5898C12.9932 9.93299 14.3363 8.58984 15.9932 8.58984ZM8.13867 10.5898C7.58639 10.5898 7.13867 11.0376 7.13867 11.5898C7.13877 12.142 7.58645 12.5898 8.13867 12.5898C8.6909 12.5898 9.13857 12.142 9.13867 11.5898C9.13867 11.0376 8.69096 10.5898 8.13867 10.5898ZM15.9932 10.5898C15.4409 10.5898 14.9932 11.0376 14.9932 11.5898C14.9933 12.142 15.4409 12.5898 15.9932 12.5898C16.5454 12.5898 16.9931 12.142 16.9932 11.5898C16.9932 11.0376 16.5454 10.5898 15.9932 10.5898ZM12.0303 0.25C12.7535 0.25 13.3398 0.836346 13.3398 1.55957V2.55957C13.3398 3.28279 12.7535 3.86914 12.0303 3.86914C11.307 3.86914 10.7207 3.28279 10.7207 2.55957V1.55957C10.7207 0.836346 11.307 0.25 12.0303 0.25Z" fill="var(--fill-0, #00CC37)"/>
<path d="M24.25 9.99805H24.5V9.99804L24.25 9.99805ZM0.25 9.99805L0 9.99804V9.99805H0.25ZM2.25 9.99805L2 9.99804V9.99805H2.25ZM22.25 9.99805H22.5V9.99804L22.25 9.99805ZM11.1387 11.5898L11.3887 11.5899V11.5898H11.1387ZM5.13867 11.5898H4.88867V11.5899L5.13867 11.5898ZM18.9932 11.5898L19.2432 11.5899V11.5898H18.9932ZM12.9932 11.5898H12.7432V11.5899L12.9932 11.5898ZM7.13867 11.5898H6.88867V11.5899L7.13867 11.5898ZM9.13867 11.5898L9.38867 11.5899V11.5898H9.13867ZM14.9932 11.5898H14.7432V11.5899L14.9932 11.5898ZM16.9932 11.5898L17.2432 11.5899V11.5898H16.9932ZM18.25 3.99805V4.24805C21.4256 4.24805 24 6.82244 24 9.99805L24.25 9.99805L24.5 9.99804C24.5 6.5463 21.7018 3.74805 18.25 3.74805V3.99805ZM24.25 9.99805H24V13.998H24.25H24.5V9.99805H24.25ZM24.25 13.998H24C24 17.1737 21.4256 19.748 18.25 19.748V19.998V20.248C21.7018 20.248 24.5 17.4498 24.5 13.998H24.25ZM18.25 19.998V19.748H6.25V19.998V20.248H18.25V19.998ZM6.25 19.998V19.748C3.07436 19.748 0.5 17.1737 0.5 13.998H0.25H0C0 17.4498 2.79822 20.248 6.25 20.248V19.998ZM0.25 13.998H0.5V9.99805H0.25H0V13.998H0.25ZM0.25 9.99805L0.5 9.99805C0.500032 6.82244 3.07439 4.24805 6.25 4.24805V3.99805V3.74805C2.79824 3.74805 3.43621e-05 6.5463 0 9.99804L0.25 9.99805ZM6.25 3.99805V4.24805H18.25V3.99805V3.74805H6.25V3.99805ZM6.25 5.99805V5.74805C3.90281 5.74805 2.00004 7.65087 2 9.99804L2.25 9.99805L2.5 9.99805C2.50003 7.927 4.17896 6.24805 6.25 6.24805V5.99805ZM2.25 9.99805H2V13.998H2.25H2.5V9.99805H2.25ZM2.25 13.998H2C2 16.3453 3.90279 18.248 6.25 18.248V17.998V17.748C4.17893 17.748 2.5 16.0691 2.5 13.998H2.25ZM6.25 17.998V18.248H18.25V17.998V17.748H6.25V17.998ZM18.25 17.998V18.248C20.5972 18.248 22.5 16.3453 22.5 13.998H22.25H22C22 16.0691 20.3211 17.748 18.25 17.748V17.998ZM22.25 13.998H22.5V9.99805H22.25H22V13.998H22.25ZM22.25 9.99805L22.5 9.99804C22.5 7.65087 20.5972 5.74805 18.25 5.74805V5.99805V6.24805C20.321 6.24805 22 7.927 22 9.99805L22.25 9.99805ZM18.25 5.99805V5.74805H6.25V5.99805V6.24805H18.25V5.99805ZM8.13867 8.58984V8.83984C9.65746 8.83984 10.8887 10.0711 10.8887 11.5898H11.1387H11.3887C11.3887 9.79492 9.9336 8.33984 8.13867 8.33984V8.58984ZM11.1387 11.5898L10.8887 11.5898C10.8886 13.1086 9.65738 14.3398 8.13867 14.3398V14.5898V14.8398C9.93355 14.8398 11.3886 13.3847 11.3887 11.5899L11.1387 11.5898ZM8.13867 14.5898V14.3398C6.61996 14.3398 5.38876 13.1086 5.38867 11.5898L5.13867 11.5898L4.88867 11.5899C4.88878 13.3847 6.34379 14.8398 8.13867 14.8398V14.5898ZM5.13867 11.5898H5.38867C5.38867 10.0711 6.61989 8.83984 8.13867 8.83984V8.58984V8.33984C6.34375 8.33984 4.88867 9.79492 4.88867 11.5898H5.13867ZM15.9932 8.58984V8.83984C17.5119 8.83984 18.7432 10.0711 18.7432 11.5898H18.9932H19.2432C19.2432 9.79492 17.7881 8.33984 15.9932 8.33984V8.58984ZM18.9932 11.5898L18.7432 11.5898C18.7431 13.1086 17.5119 14.3398 15.9932 14.3398V14.5898V14.8398C17.788 14.8398 19.2431 13.3847 19.2432 11.5899L18.9932 11.5898ZM15.9932 14.5898V14.3398C14.4745 14.3398 13.2433 13.1086 13.2432 11.5898L12.9932 11.5898L12.7432 11.5899C12.7433 13.3847 14.1983 14.8398 15.9932 14.8398V14.5898ZM12.9932 11.5898H13.2432C13.2432 10.0711 14.4744 8.83984 15.9932 8.83984V8.58984V8.33984C14.1982 8.33984 12.7432 9.79492 12.7432 11.5898H12.9932ZM8.13867 10.5898V10.3398C7.44832 10.3398 6.88867 10.8995 6.88867 11.5898H7.13867H7.38867C7.38867 11.1756 7.72446 10.8398 8.13867 10.8398V10.5898ZM7.13867 11.5898L6.88867 11.5899C6.8888 12.2801 7.44833 12.8398 8.13867 12.8398V12.5898V12.3398C7.72456 12.3398 7.38875 12.004 7.38867 11.5898L7.13867 11.5898ZM8.13867 12.5898V12.8398C8.82901 12.8398 9.38855 12.2801 9.38867 11.5899L9.13867 11.5898L8.88867 11.5898C8.8886 12.004 8.55278 12.3398 8.13867 12.3398V12.5898ZM9.13867 11.5898H9.38867C9.38867 10.8995 8.82903 10.3398 8.13867 10.3398V10.5898V10.8398C8.55289 10.8398 8.88867 11.1756 8.88867 11.5898H9.13867ZM15.9932 10.5898V10.3398C15.3028 10.3398 14.7432 10.8995 14.7432 11.5898H14.9932H15.2432C15.2432 11.1756 15.579 10.8398 15.9932 10.8398V10.5898ZM14.9932 11.5898L14.7432 11.5899C14.7433 12.2801 15.3028 12.8398 15.9932 12.8398V12.5898V12.3398C15.5791 12.3398 15.2432 12.004 15.2432 11.5898L14.9932 11.5898ZM15.9932 12.5898V12.8398C16.6835 12.8398 17.243 12.2801 17.2432 11.5899L16.9932 11.5898L16.7432 11.5898C16.7431 12.004 16.4073 12.3398 15.9932 12.3398V12.5898ZM16.9932 11.5898H17.2432C17.2432 10.8995 16.6835 10.3398 15.9932 10.3398V10.5898V10.8398C16.4074 10.8398 16.7432 11.1756 16.7432 11.5898H16.9932ZM12.0303 0.25V0.5C12.6154 0.5 13.0898 0.974418 13.0898 1.55957H13.3398H13.5898C13.5898 0.698275 12.8916 0 12.0303 0V0.25ZM13.3398 1.55957H13.0898V2.55957H13.3398H13.5898V1.55957H13.3398ZM13.3398 2.55957H13.0898C13.0898 3.14472 12.6154 3.61914 12.0303 3.61914V3.86914V4.11914C12.8916 4.11914 13.5898 3.42087 13.5898 2.55957H13.3398ZM12.0303 3.86914V3.61914C11.4451 3.61914 10.9707 3.14472 10.9707 2.55957H10.7207H10.4707C10.4707 3.42087 11.169 4.11914 12.0303 4.11914V3.86914ZM10.7207 2.55957H10.9707V1.55957H10.7207H10.4707V2.55957H10.7207ZM10.7207 1.55957H10.9707C10.9707 0.974418 11.4451 0.5 12.0303 0.5V0.25V0C11.169 0 10.4707 0.698275 10.4707 1.55957H10.7207Z" fill="var(--stroke-0, #1E1919)"/>
</g>
</svg>
