<svg preserveAspectRatio="none" width="100%" height="100%" overflow="visible" style="display: block;" viewBox="0 0 16.6154 16.6154" fill="none" xmlns="http://www.w3.org/2000/svg">
<g id="tg-logo" clip-path="url(#clip0_0_480)">
<path id="telegram-1" fill-rule="evenodd" clip-rule="evenodd" d="M12.7268 15.7745C12.9497 15.9324 13.2371 15.9718 13.4932 15.8749C13.7494 15.7773 13.9377 15.5585 13.9944 15.2934C14.5961 12.466 16.0554 5.30959 16.6031 2.73767C16.6446 2.54382 16.5754 2.34236 16.4231 2.2129C16.2707 2.08344 16.0596 2.04605 15.8713 2.11598C12.9684 3.19044 4.02867 6.54467 0.374672 7.89674C0.142749 7.98259 -0.00817451 8.20551 -0.000559128 8.4499C0.00774856 8.69498 0.172518 8.90751 0.409979 8.97882C2.04867 9.46897 4.19967 10.1509 4.19967 10.1509C4.19967 10.1509 5.2049 13.1867 5.72898 14.7305C5.79475 14.9244 5.94636 15.0767 6.14644 15.1293C6.34582 15.1812 6.55905 15.1265 6.7079 14.986C7.54975 14.1912 8.85128 12.9624 8.85128 12.9624C8.85128 12.9624 11.3242 14.7755 12.7268 15.7745ZM5.10452 9.76736L6.2669 13.6014L6.52513 11.1734C6.52513 11.1734 11.0161 7.12275 13.5763 4.8139C13.6511 4.74605 13.6614 4.63252 13.5991 4.5529C13.5375 4.47328 13.424 4.45459 13.3388 4.50859C10.3716 6.40344 5.10452 9.76736 5.10452 9.76736Z" fill="var(--fill-0, #FEFFFD)"/>
</g>
<defs>
<clipPath id="clip0_0_480">
<rect width="16.6154" height="16.6154" fill="white"/>
</clipPath>
</defs>
</svg>
