<svg preserveAspectRatio="none" width="100%" height="100%" overflow="visible" style="display: block;" viewBox="0 0 15 14.0624" fill="none" xmlns="http://www.w3.org/2000/svg">
<g id="chat-icon">
<path id="Shape" opacity="0.401268" d="M5.79004 0C8.44993 0 10.7282 1.56191 11.3818 3.71875C13.4512 4.30272 15 5.93727 15 7.91309C15 9.24782 14.2697 10.4541 13.1367 11.2646C13.2023 13.0085 14.5331 13.5953 14.4756 13.8291C13.0282 14.8249 10.5973 12.3103 9.84375 12.3096C9.82339 12.3096 9.80716 12.3119 9.78906 12.3096C7.92317 12.3096 6.25168 11.4552 5.33789 10.1846C5.29044 10.2074 5.25841 10.2118 5.21094 10.2393C4.86493 10.4293 4.42419 10.6883 3.96289 10.9355C3.50148 11.1828 3.01677 11.4212 2.51465 11.5586C2.01268 11.6959 1.46544 11.7407 0.958984 11.4844L0.814453 11.4111L0.742188 11.2832C0.642668 11.1321 0.608909 10.9303 0.633789 10.8066C0.65869 10.6835 0.708312 10.6242 0.742188 10.5693C0.807752 10.4618 0.864072 10.3974 0.922852 10.3311C1.04044 10.1983 1.16479 10.0493 1.30273 9.87305C1.54475 9.56166 1.77507 9.12841 1.86328 8.55371C0.768851 7.64708 5.61892e-05 6.40631 0 4.98242C0 2.19827 2.63264 9.33262e-05 5.79004 0ZM5.78809 1.17188C3.1555 1.17188 1.15552 2.95985 1.15527 4.98145C1.15527 6.10795 1.78893 7.16413 2.82031 7.89453L3.0918 8.0957L3.07324 8.42578C3.01438 9.27719 2.68472 9.88622 2.36816 10.3486C2.69372 10.241 3.04624 10.0897 3.41699 9.89062C3.84447 9.66166 4.28377 9.40269 4.66602 9.19434C5.04808 8.98605 5.31777 8.79199 5.78809 8.79199C8.42062 8.7918 10.4199 7.00309 10.4199 4.98145C10.4197 2.95996 8.42046 1.17207 5.78809 1.17188Z" fill="var(--fill-0, #1F1914)" fill-opacity="0.5"/>
</g>
</svg>
