<svg preserveAspectRatio="none" overflow="visible" style="display: block;" viewBox="0 0 1009 1512" fill="none" xmlns="http://www.w3.org/2000/svg">
<g id="Horizontal">
<line id="Line 01" x1="0.500066" y1="2.18561e-08" x2="0.5" y2="1512" stroke="var(--stroke-0, #1A1A19)"/>
<line id="Line 26" x1="24.5001" y1="2.18561e-08" x2="24.5001" y2="1512" stroke="var(--stroke-0, #1A1A19)"/>
<line id="Line 27" x1="48.5002" y1="2.18561e-08" x2="48.5001" y2="1512" stroke="var(--stroke-0, #1A1A19)"/>
<line id="Line 28" x1="72.5003" y1="2.18561e-08" x2="72.5002" y2="1512" stroke="var(--stroke-0, #1A1A19)"/>
<line id="Line 02" x1="96.5003" y1="2.18561e-08" x2="96.5003" y2="1512" stroke="var(--stroke-0, #1A1A19)"/>
<line id="Line 03" x1="120.5" y1="2.18561e-08" x2="120.5" y2="1512" stroke="var(--stroke-0, #1A1A19)"/>
<line id="Line 04" x1="144.5" y1="2.18561e-08" x2="144.5" y2="1512" stroke="var(--stroke-0, #1A1A19)"/>
<line id="Line 05" x1="168.501" y1="2.18561e-08" x2="168.5" y2="1512" stroke="var(--stroke-0, #1A1A19)"/>
<line id="Line 06" x1="192.501" y1="2.18561e-08" x2="192.501" y2="1512" stroke="var(--stroke-0, #1A1A19)"/>
<line id="Line 07" x1="216.501" y1="2.18561e-08" x2="216.501" y2="1512" stroke="var(--stroke-0, #1A1A19)"/>
<line id="Line 08" x1="240.501" y1="2.18561e-08" x2="240.501" y2="1512" stroke="var(--stroke-0, #1A1A19)"/>
<line id="Line 09" x1="264.501" y1="2.18561e-08" x2="264.501" y2="1512" stroke="var(--stroke-0, #1A1A19)"/>
<line id="Line 10" x1="288.501" y1="2.18561e-08" x2="288.501" y2="1512" stroke="var(--stroke-0, #1A1A19)"/>
<line id="Line 11" x1="312.501" y1="2.18561e-08" x2="312.501" y2="1512" stroke="var(--stroke-0, #1A1A19)"/>
<line id="Line 12" x1="336.501" y1="2.18561e-08" x2="336.501" y2="1512" stroke="var(--stroke-0, #1A1A19)"/>
<line id="Line 13" x1="360.501" y1="2.18561e-08" x2="360.501" y2="1512" stroke="var(--stroke-0, #1A1A19)"/>
<line id="Line 14" x1="384.501" y1="2.18561e-08" x2="384.501" y2="1512" stroke="var(--stroke-0, #1A1A19)"/>
<line id="Line 15" x1="408.501" y1="2.18561e-08" x2="408.501" y2="1512" stroke="var(--stroke-0, #1A1A19)"/>
<line id="Line 16" x1="432.501" y1="2.18561e-08" x2="432.501" y2="1512" stroke="var(--stroke-0, #1A1A19)"/>
<line id="Line 17" x1="456.501" y1="2.18561e-08" x2="456.501" y2="1512" stroke="var(--stroke-0, #1A1A19)"/>
<line id="Line 18" x1="480.501" y1="2.18561e-08" x2="480.501" y2="1512" stroke="var(--stroke-0, #1A1A19)"/>
<line id="Line 19" x1="504.501" y1="2.18561e-08" x2="504.501" y2="1512" stroke="var(--stroke-0, #1A1A19)"/>
<line id="Line 20" x1="528.501" y1="2.18561e-08" x2="528.501" y2="1512" stroke="var(--stroke-0, #1A1A19)"/>
<line id="Line 21" x1="552.502" y1="2.18561e-08" x2="552.501" y2="1512" stroke="var(--stroke-0, #1A1A19)"/>
<line id="Line 22" x1="576.502" y1="2.18561e-08" x2="576.502" y2="1512" stroke="var(--stroke-0, #1A1A19)"/>
<line id="Line 23" x1="600.502" y1="2.18561e-08" x2="600.502" y2="1512" stroke="var(--stroke-0, #1A1A19)"/>
<line id="Line 24" x1="624.502" y1="2.18561e-08" x2="624.502" y2="1512" stroke="var(--stroke-0, #1A1A19)"/>
<line id="Line 25" x1="648.502" y1="2.18561e-08" x2="648.502" y2="1512" stroke="var(--stroke-0, #1A1A19)"/>
<line id="Line 29" x1="672.502" y1="2.18561e-08" x2="672.502" y2="1512" stroke="var(--stroke-0, #1A1A19)"/>
<line id="Line 30" x1="696.502" y1="2.18561e-08" x2="696.502" y2="1512" stroke="var(--stroke-0, #1A1A19)"/>
<line id="Line 31" x1="720.502" y1="2.18561e-08" x2="720.502" y2="1512" stroke="var(--stroke-0, #1A1A19)"/>
<line id="Line 32" x1="744.502" y1="2.18561e-08" x2="744.502" y2="1512" stroke="var(--stroke-0, #1A1A19)"/>
<line id="Line 33" x1="768.502" y1="2.18561e-08" x2="768.502" y2="1512" stroke="var(--stroke-0, #1A1A19)"/>
<line id="Line 34" x1="792.502" y1="2.18561e-08" x2="792.502" y2="1512" stroke="var(--stroke-0, #1A1A19)"/>
<line id="Line 35" x1="816.502" y1="2.18561e-08" x2="816.502" y2="1512" stroke="var(--stroke-0, #1A1A19)"/>
<line id="Line 36" x1="840.502" y1="2.18561e-08" x2="840.502" y2="1512" stroke="var(--stroke-0, #1A1A19)"/>
<line id="Line 37" x1="864.502" y1="2.18561e-08" x2="864.502" y2="1512" stroke="var(--stroke-0, #1A1A19)"/>
<line id="Line 38" x1="888.502" y1="2.18561e-08" x2="888.502" y2="1512" stroke="var(--stroke-0, #1A1A19)"/>
<line id="Line 39" x1="912.502" y1="2.18561e-08" x2="912.502" y2="1512" stroke="var(--stroke-0, #1A1A19)"/>
<line id="Line 40" x1="936.503" y1="2.18561e-08" x2="936.502" y2="1512" stroke="var(--stroke-0, #1A1A19)"/>
<line id="Line 41" x1="960.503" y1="2.18561e-08" x2="960.503" y2="1512" stroke="var(--stroke-0, #1A1A19)"/>
<line id="Line 42" x1="984.503" y1="2.18561e-08" x2="984.503" y2="1512" stroke="var(--stroke-0, #1A1A19)"/>
<line id="Line 43" x1="1008.5" y1="2.18561e-08" x2="1008.5" y2="1512" stroke="var(--stroke-0, #1A1A19)"/>
</g>
</svg>
