<svg preserveAspectRatio="none" width="100%" height="100%" overflow="visible" style="display: block;" viewBox="0 0 449.002 79.3449" fill="none" xmlns="http://www.w3.org/2000/svg">
<g id="Chart">
<path id="Vector (Stroke)" d="M430.371 3.78614C434.355 -0.427384 441.001 -0.613637 445.215 3.37012C449.429 7.35409 449.616 14.0002 445.632 18.2139H445.631L441.445 22.6416C439.36 24.8458 435.922 28.489 431.857 32.0674C427.884 35.5636 422.739 39.5185 417.083 41.9863C405.697 46.9543 393.783 44.8292 387.038 44.3604C380.133 43.8804 368.595 44.3073 357.671 38.4258C352.468 35.6244 347.347 31.36 343.606 28.4229C339.265 25.0152 336.348 23.0149 334.01 22.1826C332.724 21.7248 331.074 21.4932 328.879 22.3428C326.661 23.2013 323.853 25.1774 320.308 29.2207C316.526 33.5333 312.955 38.9711 308.327 45.2939C304.331 50.754 298.956 57.7422 292.594 61.4609C284.848 65.9885 276.986 65.2371 270.443 62.3047C264.467 59.6264 259.174 54.9936 254.848 50.7754C249.881 45.9327 246.697 42.2549 242.774 38.8809C241.006 37.3603 239.624 36.4068 238.564 35.8652C238.049 35.6024 237.712 35.4888 237.528 35.4404C237.461 35.4231 237.415 35.4156 237.387 35.4111C237.335 35.4205 237.234 35.4422 237.078 35.4912C236.76 35.5915 236.292 35.7808 235.643 36.1201C234.26 36.8426 232.698 37.8983 230.575 39.4033C228.664 40.7588 226.136 42.5988 223.58 44.1152C221.011 45.6398 217.65 47.3164 213.751 47.998C205.683 49.4084 198.69 46.0514 193.961 43.1992C191.464 41.6929 189.063 39.9864 186.965 38.4746C184.754 36.8811 182.908 35.5263 181.056 34.3086C173.548 29.3717 169.147 28.8529 165.732 30.2695C163.389 31.2414 160.349 33.464 156.342 37.2324C152.135 41.189 148.776 44.9117 143.964 49.6592C135.11 58.3947 126.102 65.5714 116.922 71.1465C108.558 76.226 95.304 83.061 81.3244 75.4316C75.3412 72.1661 70.0419 66.4944 66.008 62.0332C61.4156 56.9544 57.9305 52.8223 54.4269 49.8369C51.4603 47.309 48.6877 45.8511 45.9973 45.1397C43.3072 44.4284 40.6693 44.455 37.9611 44.9375C32.3395 45.9392 26.3356 48.895 21.9875 51.2256L20.2307 52.1787L16.0441 54.4717C10.958 57.2565 4.57748 55.3915 1.79218 50.3057C-0.993152 45.2194 0.872951 38.8381 5.95917 36.0527L10.1447 33.7607C14.1383 31.5737 23.9585 26.1023 34.2775 24.2637C45.64 22.2393 57.2104 24.6179 68.0471 33.8516C72.9157 38.0001 77.8021 43.7665 81.5842 47.9492C85.925 52.7498 88.9969 55.6957 91.385 56.999C92.7879 57.7645 94.3525 58.0709 96.5998 57.5713C98.8765 57.0651 101.847 55.7322 106.023 53.1963C113.587 48.6021 121.325 42.4952 129.216 34.71C132.781 31.1929 137.79 25.8519 141.956 21.9336C146.322 17.8279 151.655 13.3746 157.684 10.873C171.017 5.34134 183.362 10.6913 192.594 16.7617C194.928 18.2965 197.269 20.0154 199.244 21.4395C201.333 22.945 203.118 24.1994 204.807 25.2178C208.447 27.4135 209.828 27.3657 210.134 27.3125C210.421 27.2623 211.247 27.0152 212.864 26.0557C214.494 25.0886 216.152 23.8864 218.428 22.2725C220.492 20.8084 223.117 18.9696 225.919 17.5059C228.728 16.0389 232.427 14.5577 236.717 14.417C245.188 14.1395 252.06 19.171 256.465 22.959C260.916 26.7865 266.096 32.412 269.508 35.7383C273.555 39.6842 276.636 42.0679 279.031 43.1416C279.975 43.5642 280.552 43.688 280.958 43.6807C281.344 43.6737 281.625 43.5489 281.997 43.3311C282.986 42.7531 284.237 41.6469 285.801 39.9141C287.359 38.1882 289.202 35.8681 291.381 32.8916C295.127 27.7735 299.928 20.6103 304.519 15.375C314.175 4.36268 326.788 -2.67828 341.052 2.39942C347.085 4.54737 352.539 8.73659 356.573 11.9033C361.207 15.5409 364.457 18.2285 367.626 19.9346C373.445 23.0673 378.639 22.7252 388.494 23.4102C393.491 23.7575 397.18 24.1764 400.339 24.2119C403.471 24.2472 406.02 23.9023 408.686 22.7393C411.402 21.5542 414.629 19.2549 417.983 16.3037C421.242 13.435 424.083 10.4362 426.186 8.21289L430.371 3.78614ZM237.425 35.4033C237.434 35.4024 237.446 35.4016 237.454 35.4004C237.485 35.3947 237.654 35.323 237.768 35.2197C237.787 35.1426 237.788 35.0669 237.782 34.9941C237.568 34.9281 237.444 34.9111 237.399 34.9072L237.425 35.4033Z" fill="url(#paint0_linear_0_243)" stroke="var(--stroke-0, #1E1919)"/>
<path id="Vector (Stroke)_2" d="M436.181 9.46138C438.753 8.45618 441.653 9.72653 442.659 12.2983C443.664 14.8701 442.394 17.7704 439.822 18.7758L427.961 23.4126C416.143 28.0323 391.911 37.5254 367.532 40.9575C343.196 44.3836 318.734 41.7255 295.425 40.5903C271.899 39.4445 248.333 39.7242 224.691 40.6196C201.169 41.5104 176.96 43.0574 152.755 40.2309C140.697 38.8229 128.549 36.3128 116.879 34.2426C105.075 32.1488 93.5741 30.4642 82.1774 30.4858C59.2816 30.5293 36.2147 37.4471 24.3044 41.0336L12.443 44.6049C9.79895 45.4011 7.00976 43.9033 6.21355 41.2592C5.4175 38.6152 6.91618 35.8259 9.56023 35.0297L21.4206 31.4585C33.2324 27.9016 57.6104 20.5324 82.1589 20.4858C94.4843 20.4624 106.706 22.2818 118.625 24.396C130.676 26.5338 142.25 28.9362 153.915 30.2983C177.154 33.0121 200.39 31.5324 224.312 30.6264C248.115 29.7249 271.993 29.4371 295.912 30.602C320.047 31.7775 343.03 34.3084 366.138 31.0551C389.204 27.8079 412.415 18.7532 424.32 14.0991L436.181 9.46138Z" fill="var(--fill-0, #00CC37)" stroke="var(--stroke-0, #1E1919)" stroke-linecap="round"/>
</g>
<defs>
<linearGradient id="paint0_linear_0_243" x1="1.00019" y1="39.6717" x2="448.002" y2="39.6717" gradientUnits="userSpaceOnUse">
<stop stop-color="#45E4F5"/>
<stop offset="1" stop-color="#1F3DFC"/>
</linearGradient>
</defs>
</svg>
