<svg overflow="visible" style="display: block;" viewBox="0 0 123.9 35" fill="none" xmlns="http://www.w3.org/2000/svg">
<g id="CDEK_logo 1" clip-path="url(#clip0_0_59)">
<path id="Vector" fill-rule="evenodd" clip-rule="evenodd" d="M19.4199 26.0036H14.0751C5.73724 26.0036 11.7947 8.32586 18.8142 8.32586H27.2591C28.613 8.32586 31.0004 8.57488 32.1763 5.23136L33.9935 0.0382813H22.413C16.1419 0.0382813 11.2602 2.24356 7.73264 5.94274C1.63955 12.274 -0.427106 22.1622 1.03381 26.8929C2.42346 31.2678 6.20046 34.149 12.1154 34.2201L16.7119 34.2556H22.3774L23.7671 30.0941C24.8004 27.1419 22.4843 26.0036 19.4199 26.0036ZM84.4842 18.6764L86.2299 13.021H67.5945C64.4946 13.021 63.1049 13.8746 62.5704 15.653L60.8245 21.3085H79.46C82.56 21.3085 83.9497 20.4549 84.4842 18.6764ZM58.0452 28.6358L56.2992 34.2912H74.9347C77.9991 34.2912 79.4244 33.4375 79.9589 31.6592L81.7049 26.0036H63.0693C60.0049 26.0036 58.6152 26.8573 58.0452 28.6358ZM88.8312 5.72932L90.5776 0.0738498H71.9417C68.8417 0.0738498 67.452 0.927504 66.9176 2.70596L65.1716 8.36143H83.8072C86.8719 8.36143 88.261 7.50778 88.8312 5.72932ZM60.682 6.86753C59.898 1.60332 57.083 0.0738498 50.2417 0.0738498H37.7705L30.5016 21.3085H35.0981C37.8417 21.3085 39.2314 21.3441 40.6923 17.4315L43.7211 8.32586H48.3532C52.3084 8.32586 51.4176 13.27 49.4222 18.0718C47.6406 22.3044 44.5406 26.0392 40.7992 26.0392H33.0671C29.9671 26.0392 28.5418 26.8929 27.9716 28.6714L26.0475 34.3268H31.713L37.2716 34.2912C42.1889 34.2556 46.2153 33.9 50.9187 29.6673C55.9072 25.15 61.6796 13.5545 60.682 6.86753ZM123.323 0.0382813H112.527L102.372 10.8157C101.195 12.0606 99.9841 13.3055 98.8079 14.7639H98.701L103.761 0.0382813H94.9603L83.0945 34.2912H91.8957L95.6723 23.5138L99.5917 20.2059L102.692 29.9518C103.654 32.9751 104.652 34.2912 106.79 34.2912H113.525L106.612 15.1551L123.323 0.0382813Z" fill="var(--fill-0, #1E1919)"/>
</g>
<defs>
<clipPath id="clip0_0_59">
<rect width="123.9" height="35" fill="white"/>
</clipPath>
</defs>
</svg>
