<svg overflow="visible" style="display: block;" viewBox="0 0 166.25 35" fill="none" xmlns="http://www.w3.org/2000/svg">
<g id="&#208;&#161;&#208;&#176;&#208;&#188;&#208;&#190;&#208;&#187;&#209;&#145;&#209;&#130;\" style="mix-blend-mode:hard-light" clip-path="url(#clip0_0_51)">
<path id="Vector" fill-rule="evenodd" clip-rule="evenodd" d="M34.3366 6.42031H32.5262C28.1791 6.42031 24.8865 9.08858 24.1307 13.0604L28.7472 13.8086C29.3789 11.9166 30.8301 10.6262 32.665 10.5405C33.0128 10.5158 33.3619 10.5158 33.7097 10.5405C36.4391 10.6394 37.6716 11.9612 37.6716 15.2227C37.0765 15.2227 36.503 15.2194 35.9501 15.2163C31.6989 15.192 28.6651 15.1747 26.3654 16.706C24.2433 18.12 23.3324 19.6873 23.3324 22.1644C23.3324 25.7506 26.0961 28.5919 30.5559 28.5919H31.1697C34.3202 28.5919 36.8636 27.3542 37.8985 25.8594V28.1535H42.5525V15.3183C42.5558 10.3675 39.9293 6.42031 34.3366 6.42031ZM31.4945 24.4371C29.516 24.3794 28.3701 23.2224 28.3701 21.7606C28.3701 20.5492 28.9104 19.9477 29.6254 19.5357C30.3747 19.094 31.3476 18.9424 32.8609 18.888C33.1117 18.8789 33.3544 18.8695 33.5959 18.8601C34.7551 18.815 35.8871 18.771 37.7581 18.771C37.7581 22.3968 35.494 24.2311 32.6813 24.4255C32.2862 24.4511 31.89 24.4549 31.4945 24.4371Z" fill="var(--fill-0, #1E1919)"/>
<path id="Vector_2" d="M47.4168 6.85781H54.8229L60.7944 22.8276L66.7202 6.85781H73.8668V28.1509H69.1166V11.8729L62.9296 28.1493H58.0488L51.8602 11.9619V28.1509H47.4168V6.85781Z" fill="var(--fill-0, #1E1919)"/>
<path id="Vector_3" d="M104.895 6.85781H121.237V28.1509H116.176V11.3455H109.514C109.47 14.3367 109.384 18.3416 109.297 20.5846C109.123 26.1716 107.502 28.1509 102.76 28.1509H100.494V23.6649H101.757C103.892 23.6649 104.59 22.6958 104.722 19.66C104.852 16.4051 104.895 9.93806 104.895 6.85781Z" fill="var(--fill-0, #1E1919)"/>
<path id="Vector_4" d="M166.302 6.85781H147.085V11.3455H154.188V28.1559H159.199V11.3455H166.302V6.85781Z" fill="var(--fill-0, #1E1919)"/>
<path id="Vector_5" fill-rule="evenodd" clip-rule="evenodd" d="M145.912 16.9483V18.9425L130.069 18.9507V19.2803C130.069 22.293 132.417 24.368 135.038 24.4768C135.416 24.5014 135.795 24.5014 136.173 24.4768C137.847 24.3927 139.939 23.5439 141.036 21.3289L145.522 22.1216C144.487 25.6535 140.975 28.3579 136.336 28.4882L136.119 28.4944C135.818 28.5032 135.654 28.508 135.49 28.5085C135.295 28.5091 135.098 28.5035 134.668 28.4911L134.565 28.4882C129.238 28.3481 125.25 24.4817 125.112 18.7381C125.084 17.5828 125.084 17.2301 125.112 16.3863C125.306 10.6131 129.096 6.52422 135.038 6.52422H136.117C141.636 6.52422 145.912 10.0791 145.912 16.9483ZM136.199 10.5373C135.783 10.5093 135.366 10.5093 134.95 10.5373V10.5356C132.385 10.6774 130.345 12.4029 130.094 14.9657H140.944C140.721 12.0947 138.401 10.6494 136.199 10.5373Z" fill="var(--fill-0, #1E1919)"/>
<path id="Vector_6" fill-rule="evenodd" clip-rule="evenodd" d="M99.1153 15.6233C99.0028 10.4714 94.8874 6.52422 89.4466 6.52422H87.4744C82.0337 6.52422 77.9182 10.4796 77.8041 15.6513C77.7765 17.0884 77.7765 17.9256 77.8041 19.3611C77.9182 24.5427 82.0337 28.4882 87.4744 28.4882H89.4466C94.8874 28.4882 99.0028 24.5427 99.1153 19.3611C99.1445 17.9256 99.1445 17.0604 99.1153 15.6233ZM94.1464 19.0974C94.0875 22.1068 91.9194 24.1488 89.0024 24.2988C88.6415 24.3284 88.279 24.3284 87.9186 24.2988C84.9719 24.1488 82.8335 22.1068 82.7746 19.0974C82.7454 17.8465 82.7454 17.1362 82.7746 15.8853C82.8335 12.9072 84.9719 10.8636 87.9186 10.7153C88.279 10.684 88.642 10.684 89.0024 10.7153C91.9194 10.8636 94.0875 12.9072 94.1464 15.915C94.1756 17.1659 94.1756 17.8465 94.1464 19.0974Z" fill="var(--fill-0, #1E1919)"/>
<path id="Vector_7" d="M11.2286 24.2625C13.3409 23.9658 14.913 22.6144 15.5006 20.6367L20.455 21.3223C19.487 25.5051 15.8271 28.4881 11.0931 28.4881H9.68758C4.24674 28.4881 0.129778 24.5426 0.0171404 19.3611C-0.00571346 17.9256 -0.00571346 17.0884 0.0171404 15.6512C0.134675 10.4714 4.25164 6.52422 9.69251 6.52422H11.098C15.739 6.52422 19.3678 9.39845 20.4224 13.4362L15.5251 14.3921C14.913 12.3188 13.2201 10.9543 10.9723 10.7086C10.5378 10.6678 10.1003 10.6706 9.66635 10.7169C6.98919 11.0053 5.04663 13.0687 4.99112 15.8919C4.96174 17.1428 4.96174 17.8531 4.99112 19.104C5.04663 21.9007 6.89615 23.8916 9.52437 24.2625C10.0898 24.3403 10.6631 24.3403 11.2286 24.2625Z" fill="var(--fill-0, #1E1919)"/>
</g>
<defs>
<clipPath id="clip0_0_51">
<rect width="166.25" height="35" fill="white"/>
</clipPath>
</defs>
</svg>
