<svg preserveAspectRatio="none" width="100%" height="100%" overflow="visible" style="display: block;" viewBox="0 0 55.0049 30.1784" fill="none" xmlns="http://www.w3.org/2000/svg">
<g id="Logo">
<path id="Logo_2" d="M13.9743 0C14.4556 6.86416e-05 14.8961 0.391413 15.2956 1.17188C15.4001 1.35108 15.4872 1.53974 15.5554 1.73535C15.8326 1.34135 16.1986 1.0179 16.6237 0.791992C17.0488 0.565675 17.5215 0.443625 18.0026 0.43457C18.6148 0.431497 19.207 0.651136 19.6696 1.05273C19.9003 1.23889 20.0855 1.47524 20.2106 1.74414C20.3357 2.013 20.3982 2.30694 20.3923 2.60352V2.8418C20.7628 2.3326 21.2476 1.91717 21.8083 1.63086C22.3689 1.34452 22.9893 1.19459 23.6188 1.19336C23.9401 1.17034 24.263 1.21218 24.568 1.31641C24.8729 1.42069 25.1539 1.58589 25.3942 1.80078C25.5918 1.99572 25.7479 2.22892 25.8522 2.48633C25.9565 2.74335 26.0067 3.01941 26.0007 3.29688C26.0052 3.83454 25.9617 4.37227 25.8708 4.90234C25.7843 5.38427 25.6871 5.83255 25.5788 6.24707C25.4706 6.66137 25.3735 7.03397 25.2868 7.36426C25.2129 7.61113 25.1683 7.86653 25.1559 8.12402C25.156 8.30441 25.2143 8.39453 25.3298 8.39453C25.6357 8.35202 25.9189 8.2069 26.1315 7.98242C26.1386 7.97625 26.1449 7.96908 26.152 7.96289C26.0404 7.55501 25.9924 7.13116 26.0095 6.70703C25.9638 5.07141 26.5447 3.48036 27.6335 2.26074C28.1687 1.64907 28.8336 1.16413 29.5788 0.841797C30.3243 0.519134 31.132 0.367011 31.943 0.395508C32.6063 0.371249 33.2677 0.474333 33.8923 0.699219C34.7439 1.04611 35.1705 1.37151 35.1706 1.6748C35.1706 1.91609 34.5743 2.03711 33.3835 2.03711C32.8271 2.02685 32.2747 2.131 31.7604 2.34375C31.2467 2.55652 30.7813 2.87302 30.3942 3.27344C29.9965 3.68062 29.6854 4.16458 29.4792 4.69531C29.2725 5.22649 29.1753 5.79388 29.193 6.36328C29.1745 6.96163 29.379 7.54597 29.7663 8.00098C29.9722 8.22666 30.2266 8.40289 30.5095 8.5166C30.7923 8.63076 31.0975 8.67919 31.402 8.65918C32.0122 8.68153 32.6162 8.53153 33.1452 8.22559C32.6492 7.90061 32.2469 7.45146 31.9772 6.92285C31.7077 6.3938 31.5794 5.80405 31.6071 5.21094C31.5972 4.50431 31.8667 3.82223 32.3552 3.3125C32.6012 3.03358 32.9047 2.81177 33.2448 2.66211C33.585 2.51229 33.9542 2.43804 34.3259 2.44531C35.1267 2.44536 35.7013 2.66541 36.0475 3.10645C36.4104 3.60586 36.5932 4.21403 36.5671 4.83105C36.5528 5.59828 36.383 6.35499 36.069 7.05469H36.1989C36.8072 7.04976 37.3911 6.81478 37.8337 6.39648C38.007 6.22318 38.1555 6.07057 38.278 5.94043C38.3219 5.88556 38.3771 5.84023 38.4391 5.80664C38.5009 5.77332 38.5694 5.75192 38.6393 5.74512C38.8412 5.74542 38.9421 5.9871 38.9421 6.46875C38.9697 6.83705 38.9136 7.2072 38.779 7.55078C38.644 7.89415 38.4329 8.20256 38.1628 8.45312C37.689 8.8657 37.082 9.09375 36.4548 9.09375C35.9224 9.10166 35.3909 9.05723 34.8669 8.96289C34.3806 9.58901 33.7586 10.0969 33.0475 10.4463C32.3365 10.7959 31.5546 10.9786 30.7624 10.9805C29.1675 10.9804 27.9724 10.5721 27.1784 9.75488C27.1434 9.71908 27.1104 9.68152 27.0768 9.64453C26.2488 10.402 25.1762 10.8421 24.0485 10.8779C23.0091 10.8779 22.489 9.93139 22.4889 8.03711C22.5102 7.37342 22.5899 6.71222 22.7272 6.0625C22.8558 5.46076 22.9341 4.84844 22.9616 4.2334C22.9615 3.75173 22.6876 3.51086 22.1393 3.51074C21.7639 3.51074 21.3445 3.87192 20.8825 4.59473C20.423 5.31868 20.0864 6.1148 19.8864 6.94922V6.99219C19.8899 7.50637 19.9666 8.0178 20.1139 8.51074C20.2324 8.8615 20.3088 9.22586 20.3415 9.59473C20.3415 10.0767 19.7279 10.559 18.5007 11.041C18.3426 11.107 18.1738 11.1437 18.0026 11.1494C17.8328 11.154 17.6656 11.1005 17.53 10.998C17.3946 10.8957 17.2979 10.7506 17.2555 10.5859C17.1009 10.0915 17.0311 9.57432 17.0495 9.05664C17.0495 8.41315 17.0671 7.81024 17.1032 7.24902C17.1392 6.6873 17.1754 6.15923 17.2116 5.66504C17.2476 5.18332 17.2839 4.75689 17.32 4.38574C17.3561 4.01488 17.3747 3.71433 17.3747 3.48535C17.3746 3.00334 17.1503 2.7627 16.7028 2.7627C16.2552 2.76289 15.7352 3.28685 15.1432 4.33496C14.5515 5.38295 14.2556 6.21477 14.2555 6.8291C14.2502 7.40478 14.327 7.97813 14.4831 8.53223C14.6016 8.88329 14.6781 9.24726 14.7106 9.61621C14.7106 10.0982 14.0969 10.5805 12.8698 11.0625C12.7116 11.1286 12.5429 11.1652 12.3718 11.1709C12.202 11.175 12.0356 11.121 11.9001 11.0186C11.7647 10.9167 11.6677 10.7718 11.6247 10.6074C11.5622 10.3897 11.513 10.1684 11.4782 9.94531C11.1873 10.1403 10.8818 10.3136 10.5632 10.4609C10.0227 10.7236 9.43132 10.8643 8.83074 10.873C8.06553 10.873 7.5525 10.2004 7.29265 8.85547C6.91838 9.46798 6.41054 9.98752 5.80633 10.374C5.06947 10.8059 4.22248 11.0135 3.3698 10.9707C2.9162 10.9904 2.46281 10.9149 2.03973 10.75C1.61678 10.585 1.23277 10.3342 0.911795 10.0127C0.610927 9.71138 0.374856 9.35061 0.218436 8.9541C0.0620168 8.55741 -0.012225 8.13238 0.00163913 7.70605C0.00168961 5.24784 0.817455 3.30981 2.4489 1.89258C3.01116 1.37753 3.67018 0.979605 4.38738 0.72168C5.00098 0.531271 5.64044 0.436434 6.28289 0.439453C6.84581 0.421414 7.40457 0.545586 7.90691 0.800781C8.10891 0.382187 8.33958 0.172094 8.5993 0.171875C8.87147 0.180925 9.13976 0.244201 9.38738 0.357422C9.63526 0.47113 9.8587 0.633289 10.0436 0.833984C10.4227 1.13664 10.6668 1.5772 10.7223 2.05957C10.4624 2.64857 10.166 3.22122 9.83465 3.77344C9.7013 4.69987 9.64282 5.63536 9.66082 6.57129C9.66083 7.77607 9.81268 8.37891 10.1159 8.37891C10.3475 8.37875 10.7816 8.09166 11.4196 7.51953C11.4438 6.48495 11.5223 5.45171 11.6569 4.4248C11.8794 3.06459 12.381 1.7644 13.1296 0.607422C13.2081 0.443654 13.3268 0.302115 13.4743 0.196289C13.6219 0.0901834 13.7939 0.0220262 13.9743 0ZM7.53875 1.91504C6.36961 2.14636 5.30178 2.73763 4.48504 3.60645C4.05414 4.05545 3.717 4.58606 3.49383 5.16699C3.27066 5.74805 3.16567 6.36826 3.18523 6.99023C3.18523 8.10361 3.59688 8.66003 4.41961 8.66016C5.30025 8.64573 6.02953 8.17626 6.60711 7.25098C6.82916 6.88693 6.99681 6.49178 7.10515 6.0791C7.08136 4.67865 7.22732 3.28061 7.53875 1.91504ZM34.5563 4.19141C34.4264 4.19155 34.3179 4.28605 34.2311 4.47363C34.1494 4.64265 34.1057 4.82766 34.1022 5.01562C34.0943 5.2807 34.1407 5.5445 34.2389 5.79102C34.3367 6.03703 34.484 6.26032 34.6716 6.44727V6.43262C34.9033 5.95934 35.0267 5.44089 35.0329 4.91406C35.0328 4.43218 34.8737 4.19141 34.5563 4.19141Z" fill="var(--fill-0, white)"/>
<path id="Logo_3" d="M22.5025 13.5184C23.9557 13.4686 25.3971 13.8019 26.6821 14.4842C26.9939 14.652 27.278 14.8632 27.5269 15.1102C27.7165 14.8087 27.9744 14.5554 28.2798 14.3709C29.0303 13.8306 29.9371 13.5518 30.8609 13.576C32.16 13.5761 32.9248 14.1789 33.1558 15.3836C33.2135 15.7451 33.2578 16.1283 33.2866 16.5331C34.3549 14.5329 35.7049 13.5331 37.3364 13.5331C39.1239 13.5332 40.138 14.3857 40.3784 16.0916C40.4676 16.6145 40.5048 17.1455 40.4878 17.6756V17.8495C41.426 16.5482 42.5375 15.8973 43.8228 15.8973C45.6416 15.8974 46.5513 16.9965 46.5513 19.1942C46.5289 20.3243 46.3796 21.4482 46.1069 22.5448C45.8112 23.8246 45.5948 24.7429 45.4575 25.2997C45.3404 25.7207 45.2712 26.1538 45.2515 26.5907C45.2515 27.1398 45.4431 27.4149 45.8257 27.4149C46.208 27.4149 47.1212 26.6627 48.565 25.159C48.8346 24.8697 49.0278 24.7254 49.1431 24.7254C49.3833 24.7258 49.5034 25.0579 49.5034 25.7225C49.4659 26.1928 49.307 26.6452 49.0415 27.035C48.7252 27.5649 48.3266 28.0404 47.8609 28.4452C47.377 28.8721 46.8334 29.2265 46.2476 29.4969C45.6612 29.7706 45.0215 29.9113 44.3745 29.909C44.0868 29.9245 43.7989 29.8756 43.5327 29.7645C43.2666 29.6541 43.0287 29.4843 42.8364 29.2694C42.4782 28.8734 42.2817 28.3574 42.2847 27.8231C42.2958 27.2182 42.3826 26.6169 42.5444 26.034C42.7273 25.3783 42.9195 24.6889 43.1216 23.9657C43.6703 22.0379 43.9518 20.6865 43.9663 19.91C43.9796 19.6471 43.9351 19.3838 43.8364 19.1395C43.7906 19.049 43.7184 18.9752 43.6294 18.9266C43.5407 18.8781 43.4392 18.8579 43.3384 18.869C42.9053 18.8691 42.4434 19.1287 41.9527 19.6493C41.405 20.2503 40.9393 20.9217 40.5669 21.6454C39.6253 23.305 39.0838 25.162 38.9859 27.0682L39.0728 27.6747C39.1023 27.8904 39.1169 28.1083 39.1157 28.326C39.1051 28.5751 39.0378 28.8191 38.9194 29.0389C38.8015 29.2584 38.6352 29.4483 38.4331 29.5946C38.0111 29.9654 37.4685 30.1701 36.9068 30.1698C36.7517 30.1698 36.5998 30.1229 36.4712 30.036C36.3426 29.9491 36.2434 29.8251 36.1851 29.6815C36.0151 29.3034 35.9339 28.892 35.9468 28.4774C35.9756 27.816 36.0841 27.1605 36.271 26.5252C36.4876 25.7012 36.7289 24.8266 36.9937 23.9012C37.6865 21.4573 38.0398 19.6348 38.0542 18.4344C38.0765 17.9422 37.9993 17.4501 37.8267 16.9881C37.7543 16.82 37.6308 16.6794 37.4732 16.5858C37.3158 16.4924 37.1321 16.451 36.9497 16.4686C36.1701 16.4687 35.3972 17.0251 34.6323 18.1385C33.8671 19.252 33.1811 20.9797 32.5747 23.3221C32.4158 23.9293 32.2963 24.4579 32.2144 24.9061L32.1929 25.3182C32.3972 26.1736 32.5343 27.0441 32.604 27.9207C32.604 28.7596 32.3081 29.3232 31.7163 29.6122L30.9253 29.9745C30.6706 30.0904 30.3938 30.1492 30.1138 30.1473C29.4871 30.1473 29.1319 29.6272 29.0493 28.5858C28.6094 28.9488 28.1252 29.2549 27.6069 29.494C27.0874 29.75 26.5181 29.8899 25.939 29.9051C25.4996 29.9297 25.063 29.8246 24.6831 29.6024C24.3736 29.3964 24.1239 29.1113 23.9605 28.7772C23.7202 28.2951 23.5184 27.3589 23.355 25.9686C23.2651 24.9945 23.1062 24.0284 22.8784 23.077C22.5186 23.0122 22.1802 22.8584 21.8931 22.6317C21.7597 22.5369 21.6504 22.4114 21.5757 22.2655C21.501 22.1195 21.4623 21.957 21.4634 21.7928C21.4517 21.6412 21.4882 21.4888 21.5679 21.3592C21.6474 21.2297 21.7663 21.1286 21.9068 21.0702C22.225 20.9208 22.5738 20.847 22.9253 20.8534C23.2878 20.8482 23.6446 20.946 23.9536 21.1356C24.3507 20.8171 24.6845 20.4267 24.939 19.9852C25.2108 19.4108 25.3358 18.7775 25.3003 18.1424C25.3151 17.795 25.2524 17.4477 25.1177 17.1268C24.9827 16.8065 24.7792 16.5194 24.521 16.287C24.0227 15.8221 23.2664 15.5897 22.2534 15.5897C21.4772 15.5639 20.701 15.6441 19.9468 15.828C19.4751 15.9634 19.0151 16.1372 18.5718 16.3485C18.1892 16.5365 17.8504 16.7106 17.5542 16.87C17.3005 17.0176 17.0135 17.0991 16.7202 17.1082C16.4606 17.1082 16.3306 17.0247 16.3306 16.8582C16.394 16.5557 16.5354 16.2749 16.7417 16.0448C17.0833 15.6087 17.4928 15.2307 17.9546 14.9247C19.2838 13.9861 20.876 13.4935 22.5025 13.5184ZM14.0093 13.4852C15.5708 13.4853 16.3521 14.1821 16.3521 15.575C16.3842 16.2431 16.2315 16.907 15.9116 17.494C15.6181 17.976 15.3195 18.2165 15.0161 18.2166C14.8151 18.2166 14.6156 18.1743 14.4321 18.0916C14.2486 18.0086 14.0852 17.8871 13.9517 17.7362C13.8258 17.5899 13.6714 17.4704 13.4986 17.3846C13.3257 17.299 13.1369 17.2489 12.9448 17.2372C12.5837 17.2372 11.5874 17.1978 10.7466 18.5536C10.4163 19.0027 10.1711 19.5089 10.0239 20.0467C9.53092 21.3133 9.28594 22.6637 9.30226 24.0233C9.43344 25.0028 9.94295 25.8913 10.7212 26.4989C11.183 26.82 11.7413 26.9711 12.3013 26.9256C13.2964 26.8153 14.2131 26.3324 14.8677 25.5741C15.3588 25.0461 15.7919 24.5471 16.2573 24.0086C16.723 23.4701 17.1349 22.9749 17.4888 22.5194C17.5461 22.4455 17.601 22.3777 17.6538 22.3163C18.1145 20.7791 18.7521 19.3001 19.5571 17.911C19.7342 17.6584 19.9454 17.4316 20.1851 17.2381C20.4324 17.0261 20.7484 16.911 21.0737 16.9129C21.2613 16.9132 21.3549 17.1542 21.355 17.6356C21.3566 18.0995 21.3272 18.5638 21.2681 19.0243C21.1482 19.8142 20.982 20.5964 20.77 21.367C20.2506 23.333 19.9908 24.4824 19.9907 24.8153V28.0038C20.0218 28.3299 19.9529 28.6575 19.7944 28.9442C19.636 29.2305 19.3944 29.4624 19.1021 29.6092L18.312 29.9706C18.0428 30.0896 17.7509 30.1494 17.4566 30.1444C16.8502 30.1444 16.5474 29.4462 16.5474 28.0506C16.5503 27.9767 16.5553 27.9028 16.5591 27.829C15.9459 28.4429 15.2414 28.9594 14.4673 29.3553C13.3789 29.9029 12.1729 30.1734 10.9556 30.1434C9.64687 30.1589 8.38089 29.6761 7.41457 28.7918C6.4016 27.8881 5.89504 26.585 5.89503 24.8836C5.87726 23.3117 6.12081 21.7478 6.61671 20.2567C7.04344 18.9666 7.67997 17.756 8.5005 16.6737C9.22108 15.7199 10.1257 14.92 11.1607 14.3231C12.0208 13.8001 13.0031 13.5114 14.0093 13.4852ZM52.8325 25.2967C54.0287 25.2967 54.9986 26.2675 54.9986 27.4657C54.9985 28.6633 54.0286 29.6346 52.8325 29.6346C51.6365 29.6344 50.6675 28.6632 50.6675 27.4657C50.6675 26.2676 51.6365 25.2969 52.8325 25.2967ZM29.6734 15.8026C29.4758 15.801 29.2822 15.8623 29.1206 15.9764C28.9546 16.092 28.7886 16.2123 28.6226 16.3377C28.5509 16.3919 28.4779 16.4478 28.4038 16.5047C28.5562 16.9404 28.6286 17.4018 28.6099 17.867C28.6638 18.9838 28.3182 20.0838 27.6353 20.9686C26.992 21.7783 26.1378 22.3944 25.1665 22.7479C25.3894 23.2438 25.5671 23.7593 25.6968 24.2879C25.8341 24.837 25.9681 25.3438 26.0982 25.8065C26.2025 26.2049 26.3512 26.5909 26.5415 26.9559C26.5905 27.0806 26.6735 27.189 26.7808 27.2694C26.8877 27.3497 27.0148 27.3989 27.148 27.411C27.4757 27.3708 27.7809 27.2221 28.0142 26.9881C28.3536 26.7064 28.6897 26.3989 29.022 26.0663C29.0823 26.0058 29.1398 25.9444 29.1978 25.8856C29.3746 24.4149 29.6923 22.4493 30.1499 19.9891C30.4243 18.544 30.5609 17.7344 30.5611 17.5604C30.5611 16.3891 30.2652 15.8028 29.6734 15.8026Z" fill="var(--fill-0, #C1E8FB)"/>
</g>
</svg>
