<svg preserveAspectRatio="none" width="100%" height="100%" overflow="visible" style="display: block;" viewBox="0 0 131.25 35" fill="none" xmlns="http://www.w3.org/2000/svg">
<g id="Auchan-logo 1" style="mix-blend-mode:hard-light" clip-path="url(#clip0_0_35)">
<path id="Vector" d="M32.3075 9.17066C31.9563 9.47634 31.9563 9.93486 32.3075 10.1641C32.6587 10.4698 33.1854 10.4698 33.4488 10.1641C33.8 9.85844 33.8 9.39992 33.4488 9.17066C33.0977 8.86499 32.5709 8.86499 32.3075 9.17066Z" fill="var(--fill-0, #1E1919)"/>
<path id="Vector_2" d="M40.3846 8.71172H36.8729L35.995 9.62875C35.8194 9.78159 35.9072 9.85801 36.0828 9.93443L37.2241 10.3929L40.4724 9.09381C40.7358 9.0174 40.648 8.71172 40.3846 8.71172ZM27.3035 23.6899H23.0017C21.8604 24.3012 21.5092 24.4541 20.0167 24.989C19.9289 24.989 19.8411 25.1419 19.9289 25.2183L23.7918 34.6178H25.9866L22.4749 25.9825C24.7575 25.9825 30.2884 25.4475 33.2734 21.2445C32.3077 22.4672 30.1129 23.6899 27.3035 23.6899ZM33.449 10.1637C33.0978 10.4694 32.5711 10.4694 32.3077 10.1637C31.9565 9.85801 31.9565 9.39949 32.3077 9.17023C32.6588 8.86456 33.1856 8.86456 33.449 9.17023C32.7466 8.55888 31.6053 8.55888 30.9908 9.17023C30.3762 9.78159 30.2884 10.6986 30.9908 11.31C31.6931 11.9213 32.8344 11.9213 33.449 11.31C34.0635 10.6986 34.1513 9.78159 33.449 9.17023C33.7124 9.47591 33.7124 9.85801 33.449 10.1637ZM24.9331 27.2816L27.918 34.6178H30.1129L26.9523 26.8995C26.4256 27.0523 25.7232 27.1288 24.9331 27.2816ZM27.918 18.1113C28.1814 17.8056 28.357 17.4999 28.6204 17.1178C28.5326 17.0414 28.4448 17.1178 28.357 17.1943C23.8796 21.3209 19.5777 21.8558 16.2416 21.8558H11.1497C10.9741 21.8558 10.8863 21.703 10.9741 21.5501C14.9247 16.8122 19.2266 13.0676 22.4749 10.6986L13.959 16.8886C13.2567 17.3471 12.4665 17.6528 11.413 17.6528H0.702327C0.438949 17.6528 0.526742 17.882 0.526742 18.0349C1.22908 20.0218 3.33611 21.8558 6.84781 21.8558L4.30183 24.072C4.21403 24.1484 4.21403 24.3777 4.47741 24.3777H14.0468C20.8946 24.3777 25.1965 21.7794 27.918 18.1113Z" fill="var(--fill-0, #1E1919)"/>
<path id="Vector_3" d="M123.436 34.6179H131.25V13.6026H123.436V21.321H116.062V13.6026H108.248V34.6179H116.062V26.6703H123.436V34.6179ZM30.9906 11.31C30.2883 10.6987 30.2883 9.78166 30.9906 9.17031C31.6929 8.55895 32.8343 8.55895 33.4488 9.17031C34.0633 9.78166 34.1511 10.6987 33.4488 11.31C32.7465 11.9214 31.6052 11.9214 30.9906 11.31ZM33.1854 21.2445C36.1704 17.0415 37.2239 10.393 37.2239 10.393L36.0826 9.9345C35.907 9.85808 35.907 9.78166 35.9948 9.62882L36.8727 8.71179C36.346 7.79476 34.4145 6.26638 31.6052 6.26638C29.9371 6.26638 28.4446 6.64847 27.1277 7.41266C27.1277 7.41266 25.1963 8.55895 22.4747 10.6223C19.2264 13.0677 14.9246 16.7358 10.9739 21.4738C10.8861 21.6266 10.9739 21.7795 11.1495 21.7795H16.2414C19.5776 21.7795 23.8794 21.2445 28.3568 17.1179C28.4446 17.0415 28.5324 17.0415 28.6202 17.0415C28.708 17.1179 28.708 17.1943 28.708 17.2707C28.0057 18.7991 26.2498 21.7795 23.0015 23.6135H27.3033C30.2005 23.6135 32.3075 22.4672 33.1854 21.2445ZM28.7958 26.2882L32.1319 34.5415H41.6135C39.6821 29.4214 37.5751 24.6834 35.5558 20.3275C33.9756 23.3079 32.4831 24.7598 28.7958 26.2882ZM-0.000195313 34.6179H9.5692L12.8175 25.8297H3.51151C2.37021 28.4279 1.2289 31.3319 -0.000195313 34.6179ZM12.9053 15.7424L17.7339 12.3035C18.7874 9.85808 19.8409 7.41266 20.8945 5.34934C21.4212 6.41921 21.948 7.5655 22.4747 8.71179C25.1085 6.80131 26.7766 5.65502 28.9714 5.12009C27.6545 2.59825 26.6888 0.764192 26.2498 0H15.5391C14.6612 1.68122 11.2373 7.87118 7.1988 16.2009H11.0617C11.8518 16.2009 12.4664 16.1245 12.9053 15.7424ZM72.0776 32.2489L72.6043 34.5415H78.9254V13.6026H71.1118V28.1987C70.4095 28.8865 69.0926 29.6507 67.8635 29.6507C65.6687 29.6507 64.5274 28.5808 64.5274 26.5939V13.6026H56.7138V28.1987C56.0115 28.8865 54.519 29.6507 53.2021 29.6507C51.1829 29.6507 50.0416 28.5808 50.0416 26.5939V13.6026H42.2281V27.5109C42.2281 32.5546 44.7741 35.0764 50.0416 35.0764C53.8167 35.0764 56.0993 33.8537 57.8552 32.2489C59.0843 34.1594 61.2791 35.0764 64.5274 35.0764C68.3025 35 70.4095 33.8537 72.0776 32.2489ZM96.9229 28.1223C96.2205 28.81 95.0792 29.5742 93.1478 29.5742C91.0408 29.5742 89.8995 27.893 89.8995 24.607C89.8995 20.5568 91.1286 18.5699 93.6745 18.5699C95.167 18.5699 95.8694 18.6463 96.9229 18.8755V28.1223ZM90.4262 35H90.6896C94.2013 35 96.5717 33.9301 97.8886 32.2489L98.3276 34.5415H104.736V14.4432C102.19 13.7555 99.2055 13.1441 93.7623 13.1441C85.9488 13.1441 81.7348 17.2707 81.7348 24.9127C81.7348 31.9432 84.7197 35 90.4262 35Z" fill="var(--fill-0, #1E1919)"/>
</g>
<defs>
<clipPath id="clip0_0_35">
<rect width="131.25" height="35" fill="white"/>
</clipPath>
</defs>
</svg>
