<svg preserveAspectRatio="none" width="100%" height="100%" overflow="visible" style="display: block;" viewBox="0 0 67 40" fill="none" xmlns="http://www.w3.org/2000/svg">
<g id="devices-logo">
<path id="Vector" opacity="0" d="M67 0H0V40H67V0Z" fill="var(--fill-0, #1E1919)"/>
<path id="Vector_2" d="M52.5708 6.83705H48.1711C44.302 6.83705 41.8354 9.24823 41.8354 13.0007V32.1943H13.4297V8.60946C13.4297 7.14044 14.1551 6.42188 15.6383 6.42188H51.0568C51.7055 6.42188 52.2093 6.55937 52.5708 6.83705Z" fill="var(--fill-0, #BBB5AE)"/>
<path id="Vector_3" d="M56.0569 6.83527H52.5697C52.2081 6.55759 51.7044 6.4201 51.0556 6.4201H15.6372C14.154 6.4201 13.4285 7.13866 13.4285 8.60769V32.1925H41.8342V33.8372C41.8342 34.7997 41.9965 35.6739 42.3054 36.44H6.01278C4.83593 36.44 3.88477 35.498 3.88477 34.3163C3.88477 33.1346 4.83593 32.1925 6.01278 32.1925H10.559V7.85723C10.559 5.04685 12.1872 3.59375 14.8956 3.59375H51.7972C54.2532 3.59375 55.7195 4.69497 56.0569 6.83527Z" fill="var(--fill-0, #1E1919)"/>
<path id="Vector_4" d="M48.2196 35.2536C47.1233 35.2536 46.6074 34.7267 46.6074 33.6249V13.4732C46.6074 12.3554 47.1233 11.8125 48.2196 11.8125H57.5055C58.5856 11.8125 59.1176 12.3554 59.1176 13.4732V33.6249C59.1176 34.7267 58.5856 35.2536 57.5055 35.2536H48.2196Z" fill="var(--fill-0, #BBB5AE)"/>
<path id="Vector_5" d="M48.1699 37.6045H57.5363C60.0673 37.6045 61.4861 36.2632 61.4861 33.836V13.2692C61.4861 10.842 60.0512 9.46875 57.5363 9.46875H48.1699C45.6711 9.46875 44.2363 10.842 44.2363 13.2692V33.836C44.2363 36.2632 45.655 37.6045 48.1699 37.6045ZM48.2183 35.2572C47.122 35.2572 46.6061 34.7303 46.6061 33.6284V13.4768C46.6061 12.359 47.122 11.8161 48.2183 11.8161H57.5041C58.5842 11.8161 59.1162 12.359 59.1162 13.4768V33.6284C59.1162 34.7303 58.5842 35.2572 57.5041 35.2572H48.2183ZM49.9916 34.2033H55.6985C56.0854 34.2033 56.3917 33.9318 56.3917 33.5326C56.3917 33.1654 56.0854 32.862 55.6985 32.862H49.9916C49.6047 32.862 49.3306 33.1654 49.3306 33.5326C49.3306 33.9478 49.5724 34.2033 49.9916 34.2033ZM51.2168 14.6425H54.4572C54.9731 14.6425 55.3599 14.2432 55.3599 13.7323C55.3599 13.2532 54.9731 12.87 54.4572 12.87H51.2168C50.7009 12.87 50.314 13.2532 50.314 13.7323C50.314 14.2432 50.7009 14.6425 51.2168 14.6425Z" fill="var(--fill-0, #1E1919)"/>
</g>
</svg>
