<svg preserveAspectRatio="none" width="100%" height="100%" overflow="visible" style="display: block;" viewBox="0 0 285.425 70.0429" fill="none" xmlns="http://www.w3.org/2000/svg">
<g id="Group">
<path id="Vector" d="M56.9423 70.0429H13.136C5.88444 70.0429 1.5564e-05 64.1565 1.5564e-05 56.9024V13.1405C1.5564e-05 5.88646 5.88444 3.8147e-06 13.136 3.8147e-06H56.8828C64.1344 3.8147e-06 70.0188 5.88646 70.0188 13.1405V56.9024C70.0188 64.1565 64.1344 70.0429 56.9423 70.0429ZM13.136 1.42702C6.65715 1.42702 1.42654 6.71889 1.42654 13.1405V56.9024C1.42654 63.3835 6.71659 68.6159 13.136 68.6159H56.8828C63.3617 68.6159 68.5923 63.324 68.5923 56.9024V13.1405C68.5923 6.65943 63.3022 1.42702 56.8828 1.42702H13.136Z" fill="var(--fill-0, #1E1919)"/>
<path id="Subtract" d="M56.8848 0.718754C63.7794 0.718939 69.3065 6.30792 69.3067 13.1455V56.9072C69.3067 63.8044 63.7201 69.3348 56.8848 69.335H13.1377C6.24282 69.335 0.714859 63.745 0.714859 56.9072V13.1455C0.714975 6.24835 6.30233 0.718754 13.1377 0.718754H56.8848ZM17.5352 31.5791H24.5488V38.5957H17.5352V52.6279H24.5488V45.6113H31.5039V52.5635H38.5176V45.5469H31.5625V38.5957H38.5195V45.5479H45.5313V52.5635H52.5449V45.5469H45.5332V38.5957H52.5449V24.5635H45.5313V17.5469H31.5039V24.5039H38.5176V31.5195H45.5313V38.5313H38.5762V31.5791H31.5625V24.5635H24.5488V17.5469H17.5352V31.5791Z" fill="var(--fill-0, #1E1919)"/>
<g id="Group_2">
<path id="Vector_2" d="M106.694 45.4266L106.635 32.8807L100.453 43.2266H98.3131L92.1315 33.1185V45.4266H87.5547V24.4375H91.5965L99.4424 37.4591L107.169 24.4375H111.211L111.271 45.4266H106.694Z" fill="var(--fill-0, #1E1919)"/>
<path id="Vector_3" d="M123.399 45.6672C121.676 45.6672 120.19 45.3105 118.823 44.597C117.455 43.8835 116.445 42.8727 115.672 41.624C114.9 40.3754 114.543 38.9483 114.543 37.3429C114.543 35.7376 114.9 34.3105 115.672 33.0619C116.445 31.8132 117.515 30.8024 118.823 30.1484C120.19 29.4349 121.735 29.0781 123.399 29.0781C125.123 29.0781 126.609 29.4349 127.976 30.1484C129.343 30.8619 130.354 31.8132 131.126 33.0619C131.899 34.3105 132.256 35.7376 132.256 37.3429C132.256 38.9483 131.899 40.3754 131.126 41.624C130.354 42.8727 129.284 43.8835 127.976 44.597C126.609 45.3699 125.123 45.6672 123.399 45.6672ZM123.399 41.8619C124.588 41.8619 125.599 41.4456 126.371 40.6727C127.144 39.8402 127.56 38.77 127.56 37.4024C127.56 36.0349 127.144 34.9646 126.371 34.1916C125.599 33.3592 124.648 32.943 123.399 32.943C122.211 32.943 121.2 33.3592 120.427 34.1916C119.655 34.9646 119.239 36.0943 119.239 37.4024C119.239 38.77 119.655 39.8402 120.427 40.6727C121.2 41.4456 122.211 41.8619 123.399 41.8619Z" fill="var(--fill-0, #1E1919)"/>
<path id="Vector_4" d="M153.114 41.6205V48.934H148.775V45.4854H137.362V48.934H133.023V41.6205H133.677C134.688 41.6205 135.342 41.026 135.758 39.8368C136.114 38.7071 136.352 37.0422 136.471 34.9017L136.709 29.3125H150.796V41.6205H153.114ZM140.691 35.2584C140.632 36.9233 140.513 38.2314 140.275 39.3016C140.097 40.3125 139.74 41.1449 139.205 41.68H146.041V33.2368H140.75L140.691 35.2584Z" fill="var(--fill-0, #1E1919)"/>
<path id="Vector_5" d="M171.955 29.3125L164.644 46.4367C163.931 48.28 162.98 49.5881 161.85 50.3611C160.781 51.134 159.473 51.4908 157.928 51.4908C157.095 51.4908 156.263 51.3719 155.431 51.0746C154.599 50.8367 153.945 50.48 153.41 50.0043L155.134 46.6746C155.491 46.9719 155.907 47.2692 156.382 47.4476C156.858 47.6259 157.333 47.7448 157.809 47.7448C158.462 47.7448 158.997 47.5665 159.354 47.2692C159.77 46.9719 160.127 46.4367 160.424 45.7232L160.483 45.5449L153.47 29.3125H158.284L162.801 40.253L167.378 29.3125H171.955Z" fill="var(--fill-0, #1E1919)"/>
<path id="Vector_6" d="M188.242 29.322V45.4355H183.547V33.1274H178.435L178.257 35.9815C178.197 38.122 177.959 39.8463 177.662 41.2733C177.365 42.7004 176.83 43.7706 176.117 44.5436C175.404 45.3166 174.393 45.7328 173.085 45.7328C172.432 45.7328 171.599 45.6139 170.648 45.376L170.886 41.5112C171.183 41.5706 171.421 41.5706 171.599 41.5706C172.313 41.5706 172.848 41.3328 173.145 40.7977C173.502 40.2625 173.739 39.6085 173.858 38.8355C173.977 38.0625 174.096 36.9923 174.155 35.6842L174.393 29.2031H188.242V29.322Z" fill="var(--fill-0, #1E1919)"/>
<path id="Vector_7" d="M201.203 34.4855C203.284 34.4855 204.948 34.9611 206.018 35.9125C207.147 36.8044 207.682 38.1125 207.682 39.8368C207.682 41.6206 207.028 42.9881 205.78 43.9989C204.532 44.9503 202.808 45.4854 200.549 45.4854L192.406 45.4259V29.3125H197.042V34.4855H201.203ZM200.193 42.1557C201.084 42.1557 201.798 41.9773 202.273 41.5611C202.749 41.1449 202.986 40.5503 202.986 39.7773C202.986 39.0044 202.749 38.4098 202.273 38.053C201.798 37.6962 201.144 37.5179 200.193 37.4584L197.161 37.399V42.0962H200.193V42.1557Z" fill="var(--fill-0, #1E1919)"/>
<path id="Vector_8" d="M219.684 30.4462C221.23 30.4462 222.597 30.7435 223.726 31.3976C224.915 31.9922 225.807 32.8841 226.401 34.0138C227.055 35.1435 227.352 36.4516 227.352 37.9976C227.352 39.5435 226.995 40.9111 226.223 42.1002C225.509 43.2894 224.439 44.1813 223.072 44.8354C221.705 45.4894 220.219 45.7867 218.496 45.7867C215.643 45.7867 213.443 44.8948 211.838 43.1111C210.234 41.2678 209.461 38.6516 209.461 35.1435C209.461 31.9327 210.174 29.3165 211.541 27.4138C212.968 25.4517 215.167 24.203 218.08 23.6084L225.747 22.0625L226.401 26.1057L219.625 27.4733C217.782 27.83 216.415 28.4246 215.524 29.2571C214.632 30.0895 214.097 31.2787 213.978 32.8246C214.692 32.0516 215.524 31.4571 216.475 31.1003C217.485 30.6246 218.555 30.4462 219.684 30.4462ZM218.615 42.1597C219.803 42.1597 220.754 41.7435 221.527 40.9705C222.24 40.1976 222.656 39.1868 222.656 37.9976C222.656 36.8084 222.3 35.7976 221.527 35.0841C220.814 34.3706 219.863 34.0138 218.615 34.0138C217.366 34.0138 216.415 34.3706 215.643 35.0841C214.929 35.7976 214.513 36.7489 214.513 37.9976C214.513 39.1868 214.87 40.1976 215.643 40.9705C216.415 41.803 217.426 42.1597 218.615 42.1597Z" fill="var(--fill-0, #1E1919)"/>
<path id="Vector_9" d="M236.327 29.0781C238.823 29.0781 240.725 29.6727 242.092 30.8619C243.46 32.0511 244.113 33.8349 244.113 36.2132V45.4294H239.715V43.4672C238.823 44.9537 237.218 45.7267 234.781 45.7267C233.533 45.7267 232.463 45.4889 231.512 45.0726C230.621 44.6564 229.908 44.0618 229.432 43.3483C228.956 42.6348 228.719 41.7429 228.719 40.851C228.719 39.3646 229.254 38.1754 230.383 37.3429C231.512 36.5105 233.296 36.0348 235.614 36.0348H239.358C239.358 35.024 239.061 34.2511 238.407 33.7159C237.813 33.1808 236.862 32.8835 235.614 32.8835C234.781 32.8835 233.89 33.0024 233.058 33.2997C232.226 33.5376 231.512 33.8943 230.977 34.37L229.313 31.0997C230.205 30.5051 231.275 30.0295 232.463 29.6727C233.712 29.2565 235.019 29.0781 236.327 29.0781ZM235.911 42.5754C236.684 42.5754 237.397 42.397 238.051 42.0402C238.645 41.6835 239.121 41.0889 239.358 40.3754V38.7105H236.149C234.247 38.7105 233.236 39.3646 233.236 40.6132C233.236 41.2078 233.474 41.6835 233.949 42.0402C234.484 42.397 235.138 42.5754 235.911 42.5754Z" fill="var(--fill-0, #1E1919)"/>
<path id="Vector_10" d="M247.859 29.3125H252.496V35.6152H259.509V29.3125H264.205V45.4259H259.509V39.4206H252.496V45.4259H247.859V29.3125Z" fill="var(--fill-0, #1E1919)"/>
<path id="Vector_11" d="M275.558 39.3641H273.121V45.4884H268.426V29.375H273.121V35.6182H275.618L280.016 29.375H285.009L279.363 37.1047L285.425 45.4884H279.897L275.558 39.3641Z" fill="var(--fill-0, #1E1919)"/>
</g>
</g>
</svg>
