<svg preserveAspectRatio="none" width="100%" height="100%" overflow="visible" style="display: block;" viewBox="0 0 15 15" fill="none" xmlns="http://www.w3.org/2000/svg">
<g id="whatsapp-icon">
<path id="WhatsApp_1_" opacity="0.402231" fill-rule="evenodd" clip-rule="evenodd" d="M5.40199 3.80879C5.25656 3.46051 5.14629 3.44727 4.92598 3.43836C4.85098 3.43402 4.76742 3.42969 4.67473 3.42969C4.38809 3.42969 4.08844 3.51348 3.90762 3.69863C3.6873 3.92352 3.14062 4.44816 3.14062 5.52395C3.14062 6.59984 3.9252 7.64035 4.03102 7.78602C4.14129 7.93133 5.56066 10.1713 7.76461 11.0841C9.48809 11.7984 9.99949 11.7322 10.3917 11.6485C10.9648 11.5251 11.6832 11.1016 11.8641 10.5903C12.0448 10.0788 12.0448 9.64227 11.9918 9.54969C11.9389 9.45711 11.7934 9.40438 11.5731 9.29398C11.3528 9.18371 10.2816 8.65461 10.0788 8.58406C9.88043 8.50918 9.69094 8.53566 9.54117 8.7473C9.32953 9.04273 9.12246 9.34262 8.95488 9.52332C8.8227 9.66441 8.6066 9.68211 8.4259 9.60711C8.18344 9.50586 7.50469 9.2675 6.66715 8.52242C6.0191 7.94492 5.57836 7.22633 5.45063 7.01023C5.32277 6.7898 5.43738 6.66184 5.53875 6.54289C5.64902 6.40613 5.75473 6.30922 5.86488 6.18125C5.97516 6.0534 6.0368 5.9873 6.10734 5.8373C6.18234 5.69188 6.12938 5.54188 6.07652 5.4316C6.02355 5.32109 5.58281 4.2452 5.40199 3.80879ZM7.49777 0C3.36316 0 0 3.3641 0 7.49988C0 9.14004 0.528984 10.6613 1.42816 11.8958L0.493594 14.6824L3.37641 13.7611C4.56211 14.5459 5.97703 15 7.50223 15C11.6368 15 15 11.6357 15 7.50012C15 3.36434 11.6368 0.000234375 7.50223 0.000234375H7.49789V0H7.49777Z" fill="var(--fill-0, #1F1914)" fill-opacity="0.5"/>
</g>
</svg>
