<svg preserveAspectRatio="none" width="100%" height="100%" overflow="visible" style="display: block;" viewBox="0 0 72.7841 5.69181" fill="none" xmlns="http://www.w3.org/2000/svg">
<path id="Arrow" opacity="0.8" d="M0 2.84591C0 3.98424 0.922805 4.90705 2.06114 4.90705C3.19948 4.90705 4.12228 3.98424 4.12228 2.84591C4.12228 1.70757 3.19948 0.784765 2.06114 0.784765C0.922805 0.784765 0 1.70757 0 2.84591ZM72.6709 3.11918C72.8218 2.96825 72.8218 2.72356 72.6709 2.57264L70.2114 0.113193C70.0605 -0.0377309 69.8158 -0.0377309 69.6649 0.113193C69.514 0.264117 69.514 0.508812 69.6649 0.659736L71.8511 2.84591L69.6649 5.03208C69.514 5.183 69.514 5.4277 69.6649 5.57862C69.8158 5.72954 70.0605 5.72954 70.2114 5.57862L72.6709 3.11918ZM2.06114 2.84591V3.23237H72.3976V2.84591V2.45944H2.06114V2.84591Z" fill="var(--stroke-0, #1E1919)"/>
</svg>
