<svg overflow="visible" style="display: block;" viewBox="0 0 41.8694 41.8337" fill="none" xmlns="http://www.w3.org/2000/svg">
<g id="Group">
<path id="Vector" fill-rule="evenodd" clip-rule="evenodd" d="M20.951 0.00264845C1.77921 -0.284002 -7.03854 22.7677 6.60456 35.2989C6.94521 35.6058 7.15131 36.031 7.16841 36.4896L7.28226 40.2097C7.32006 41.3964 8.54496 42.1668 9.63036 41.6911L13.7798 39.8605C14.1331 39.7048 14.5246 39.6756 14.8949 39.7764C28.1042 43.5559 42.1177 34.2873 41.8661 20.2914C41.8666 8.6341 32.7343 0.00264845 20.951 0.00264845ZM33.7729 15.5002L27.4999 25.4515C26.5031 27.0328 24.3634 27.4279 22.868 26.3065L17.8793 22.5639C17.4194 22.2201 16.7921 22.2245 16.3367 22.5683L9.59886 27.6817C8.70111 28.3648 7.52346 27.2862 8.12916 26.3326L14.4031 16.3808C15.3998 14.7995 17.5396 14.4044 19.0349 15.5258L24.0236 19.2685C24.4835 19.6123 25.1108 19.6078 25.5662 19.264L32.3036 14.1507C33.2018 13.468 34.379 14.5462 33.7729 15.5002Z" fill="var(--fill-0, white)"/>
</g>
</svg>
