<svg overflow="visible" style="display: block;" viewBox="0 0 45 45" fill="none" xmlns="http://www.w3.org/2000/svg">
<g id="tg-logo" clip-path="url(#clip0_0_446)">
<path id="telegram-1" fill-rule="evenodd" clip-rule="evenodd" d="M34.47 42.7106C35.0737 43.1381 35.8519 43.245 36.5456 42.9825C37.2394 42.7181 37.7494 42.1256 37.9031 41.4075C39.5325 33.75 43.485 14.3681 44.9681 7.4025C45.0806 6.8775 44.8931 6.33188 44.4806 5.98125C44.0681 5.63063 43.4962 5.52937 42.9862 5.71875C35.1244 8.62875 10.9125 17.7131 1.01625 21.375C0.388125 21.6075 -0.020625 22.2112 -1.4453e-10 22.8731C0.0225 23.5369 0.46875 24.1125 1.11187 24.3056C5.55 25.6331 11.3756 27.48 11.3756 27.48C11.3756 27.48 14.0981 35.7019 15.5175 39.8831C15.6956 40.4081 16.1062 40.8206 16.6481 40.9631C17.1881 41.1038 17.7656 40.9556 18.1687 40.575C20.4487 38.4225 23.9737 35.0944 23.9737 35.0944C23.9737 35.0944 30.6712 40.005 34.47 42.7106ZM13.8262 26.4412L16.9744 36.825L17.6737 30.2494C17.6737 30.2494 29.8369 19.2788 36.7706 13.0256C36.9731 12.8419 37.0012 12.5344 36.8325 12.3188C36.6656 12.1031 36.3581 12.0525 36.1275 12.1987C28.0912 17.3306 13.8262 26.4412 13.8262 26.4412Z" fill="var(--fill-0, #FEFFFD)"/>
</g>
<defs>
<clipPath id="clip0_0_446">
<rect width="45" height="45" fill="white"/>
</clipPath>
</defs>
</svg>
