<svg preserveAspectRatio="none" width="100%" height="100%" overflow="visible" style="display: block;" viewBox="0 0 20 20" fill="none" xmlns="http://www.w3.org/2000/svg">
<g id="tg-logo" clip-path="url(#clip0_0_491)">
<path id="telegram-1" fill-rule="evenodd" clip-rule="evenodd" d="M15.3197 18.9821C15.588 19.1721 15.9338 19.2196 16.2422 19.1029C16.5505 18.9854 16.7772 18.7221 16.8455 18.4029C17.5697 14.9996 19.3263 6.38541 19.9855 3.28957C20.0355 3.05624 19.9522 2.81374 19.7688 2.65791C19.5855 2.50207 19.3313 2.45707 19.1047 2.54124C15.6105 3.83457 4.84967 7.87207 0.451335 9.49957C0.172168 9.6029 -0.0094986 9.87124 -0.000331935 10.1654C0.00966807 10.4604 0.208001 10.7162 0.493835 10.8021C2.46634 11.3921 5.0555 12.2129 5.0555 12.2129C5.0555 12.2129 6.2655 15.8671 6.89634 17.7254C6.9755 17.9587 7.158 18.1421 7.39883 18.2054C7.63883 18.2679 7.8955 18.2021 8.07467 18.0329C9.088 17.0762 10.6547 15.5971 10.6547 15.5971C10.6547 15.5971 13.6313 17.7796 15.3197 18.9821ZM6.14467 11.7512L7.54384 16.3662L7.85467 13.4437C7.85467 13.4437 13.2605 8.56791 16.3422 5.78874C16.4322 5.70707 16.4447 5.57041 16.3697 5.47457C16.2955 5.37874 16.1588 5.35624 16.0563 5.42124C12.4847 7.70207 6.14467 11.7512 6.14467 11.7512Z" fill="var(--fill-0, #FEFFFD)"/>
</g>
<defs>
<clipPath id="clip0_0_491">
<rect width="20" height="20" fill="white"/>
</clipPath>
</defs>
</svg>
