<svg overflow="visible" style="display: block;" viewBox="0 0 29.7929 35.5161" fill="none" xmlns="http://www.w3.org/2000/svg">
<g id="Group">
<path id="Vector" d="M9.34046 35.5159V12.3572H0V6.20101H25.7601V12.3572H16.4192V35.5159H9.34046Z" fill="var(--fill-0, #FFF9E9)"/>
<path id="Vector_2" d="M26.9407 22.9516L26.5135 23.1513C24.4854 24.1009 19.4062 26.1099 16.0114 24.2828C13.6002 22.6876 13.2082 16.6474 13.1895 13.1957C13.251 10.3757 13.5949 7.31145 15.6774 5.95699C16.2049 5.65783 16.7895 5.59987 17.2845 5.79871C17.746 5.98374 18.0738 6.36493 18.2361 6.91465C18.5527 7.85805 18.4221 9.03953 17.8357 10.5273C17.717 10.8314 17.6038 11.1261 17.4936 11.4136C16.6825 13.5269 15.6082 15.3968 14.076 17.3826L13.9743 17.5145L13.9944 17.6799C14.1117 18.6501 14.5376 21.4892 15.5208 22.9823C15.7144 23.2761 15.9672 23.5253 16.2548 23.7282L16.4484 23.4817C16.5028 23.4335 22.9755 14.7173 23.8682 9.82911C24.3373 7.27623 23.7465 4.62972 22.2878 2.74961C21.0138 1.10757 19.2221 0.1615 17.1034 0.0143722C15.0727 -0.113584 13.1208 0.61492 11.4687 2.1174C10.0372 3.41837 8.92641 5.21689 8.34046 7.18171C7.70902 9.29901 7.60423 11.4662 7.58461 13.3044C7.50434 18.4383 8.28427 25.2949 12.4577 28.8023C14.208 30.2736 16.4091 31.0195 19.0004 31.0195C19.9556 31.0195 20.9768 30.9169 22.0395 30.7145C24.3057 30.2616 27.0022 29.4274 29.2515 28.4064L29.7928 28.1603L26.9411 22.9524L26.9407 22.9516Z" fill="var(--fill-0, #DDD0B0)"/>
<path id="Vector_3" d="M13.5698 11.5158C13.5149 19.2948 15.2331 24.5169 16.4112 24.4242V11.4431C14.8335 11.403 13.6862 11.5091 13.5698 11.5158Z" fill="var(--fill-0, #FFF9E9)"/>
<path id="Vector_4" d="M16.6704 12.3572C17.7728 12.3572 24.6651 12.3567 24.6651 12.3567C24.6651 12.3567 24.7561 6.41054 24.74 6.20857H16.3146C16.2745 7.78596 16.6637 12.2408 16.6704 12.3572Z" fill="var(--fill-0, #FFF9E9)"/>
</g>
</svg>
