<svg preserveAspectRatio="none" width="100%" height="100%" overflow="visible" style="display: block;" viewBox="0 0 73 76.4" fill="none" xmlns="http://www.w3.org/2000/svg">
<g id="Mail" filter="url(#filter0_d_0_459)">
<rect x="4" y="1" width="65" height="68.4" rx="10" fill="url(#paint0_linear_0_459)" shape-rendering="crispEdges"/>
<path id="&#244;&#128;&#141;&#150;" d="M36.492 36.3788C36.046 36.3788 35.6318 36.2036 35.1221 35.7576L19.0807 21.4684C19.9409 21.0065 20.8967 20.7994 22.1233 20.7994H50.8767C52.1033 20.7994 53.0591 21.0065 53.9194 21.4684L37.8779 35.7576C37.3682 36.2036 36.954 36.3788 36.492 36.3788ZM16.8823 46.3987C16.6434 45.7456 16.5 44.981 16.5 44.0092V26.3908C16.5 25.3235 16.6752 24.4792 16.8983 23.9376L28.782 34.5309L16.8823 46.3987ZM56.1177 46.3987L44.218 34.5309L56.1018 23.9376C56.3248 24.4792 56.5 25.3235 56.5 26.3908V44.0092C56.5 44.981 56.3566 45.7456 56.1177 46.3987ZM21.8684 49.6006C20.6896 49.6006 19.7338 49.3617 19.0169 48.9634L31.267 36.7293L33.1786 38.4338C34.2778 39.4055 35.2973 39.8515 36.492 39.8515C37.7027 39.8515 38.7222 39.4055 39.8055 38.4338L41.733 36.7293L53.9671 48.9634C53.2503 49.3617 52.2945 49.6006 51.1316 49.6006H21.8684Z" fill="var(--fill-0, #F5F5F5)"/>
</g>
<defs>
<filter id="filter0_d_0_459" x="0" y="0" width="73" height="76.4" filterUnits="userSpaceOnUse" color-interpolation-filters="sRGB">
<feFlood flood-opacity="0" result="BackgroundImageFix"/>
<feColorMatrix in="SourceAlpha" type="matrix" values="0 0 0 0 0 0 0 0 0 0 0 0 0 0 0 0 0 0 127 0" result="hardAlpha"/>
<feOffset dy="3"/>
<feGaussianBlur stdDeviation="2"/>
<feComposite in2="hardAlpha" operator="out"/>
<feColorMatrix type="matrix" values="0 0 0 0 0.121569 0 0 0 0 0.0980392 0 0 0 0 0.0784314 0 0 0 0.15 0"/>
<feBlend mode="normal" in2="BackgroundImageFix" result="effect1_dropShadow_0_459"/>
<feBlend mode="normal" in="SourceGraphic" in2="effect1_dropShadow_0_459" result="shape"/>
</filter>
<linearGradient id="paint0_linear_0_459" x1="36.5" y1="1" x2="36.5" y2="69.4" gradientUnits="userSpaceOnUse">
<stop stop-color="#00C0FA"/>
<stop offset="1" stop-color="#0071FF"/>
</linearGradient>
</defs>
</svg>
