<svg overflow="visible" style="display: block;" viewBox="0 0 45 45.2016" fill="none" xmlns="http://www.w3.org/2000/svg">
<g id="Group">
<g id="Vector" filter="url(#filter0_i_0_443)">
<path d="M0.188196 22.3974C0.186829 26.3449 1.21826 30.1986 3.17882 33.5952L0 45.2016L11.8778 42.0873C15.1504 43.8717 18.8351 44.8125 22.5846 44.8138H22.5942C34.9424 44.8138 44.9947 34.7647 45 22.4154C45.002 16.4302 42.6733 10.8023 38.4434 6.56863C34.2129 2.33536 28.5878 0.00250624 22.5942 0C10.2437 0 0.193208 10.0475 0.188196 22.3974ZM7.26149 33.0104L6.81811 32.3063C4.9537 29.3419 3.96966 25.9163 3.97102 22.3987C3.97512 12.1341 12.3289 3.78305 22.6013 3.78305C27.5757 3.78511 32.251 5.72425 35.7672 9.24278C39.2835 12.7615 41.2183 17.4391 41.2169 22.414C41.2124 32.6789 32.8584 41.031 22.5942 41.031H22.5869C19.2447 41.0292 15.967 40.1317 13.1083 38.4357L12.428 38.0322L5.37953 39.8802L7.26149 33.0104Z" fill="var(--fill-0, #F5F5F5)"/>
</g>
<path id="Vector_2" d="M16.9942 13.0339C16.5748 12.1016 16.1334 12.0829 15.7345 12.0665C15.408 12.0526 15.0346 12.0535 14.6616 12.0535C14.2882 12.0535 13.6817 12.1939 13.1688 12.7539C12.6555 13.3141 11.2091 14.6684 11.2091 17.4228C11.2091 20.1774 13.2155 22.839 13.4951 23.2129C13.7751 23.5861 17.3681 29.4192 23.0584 31.6632C27.7877 33.5281 28.7501 33.1572 29.7765 33.0638C30.8029 32.9706 33.0888 31.7099 33.5552 30.4026C34.0218 29.0955 34.0218 27.975 33.8819 27.741C33.742 27.5077 33.3686 27.3675 32.8088 27.0878C32.2488 26.8077 29.4965 25.4532 28.9834 25.2664C28.4701 25.0798 28.0969 24.9866 27.7234 25.5471C27.3502 26.1069 26.278 27.3675 25.9513 27.741C25.6248 28.1151 25.2981 28.1618 24.7383 27.8818C24.1782 27.6009 22.3751 27.0103 20.2362 25.1033C18.5718 23.6193 17.4483 21.7868 17.1216 21.2263C16.7951 20.6665 17.0867 20.3633 17.3674 20.0842C17.619 19.8333 17.9274 19.4305 18.2075 19.1038C18.4868 18.7768 18.58 18.5435 18.7666 18.1701C18.9534 17.7964 18.86 17.4695 18.7201 17.1895C18.58 16.9095 17.492 14.141 16.9942 13.0339Z" fill="var(--fill-0, #F5F5F5)"/>
</g>
<defs>
<filter id="filter0_i_0_443" x="0" y="0" width="45" height="46.2016" filterUnits="userSpaceOnUse" color-interpolation-filters="sRGB">
<feFlood flood-opacity="0" result="BackgroundImageFix"/>
<feBlend mode="normal" in="SourceGraphic" in2="BackgroundImageFix" result="shape"/>
<feColorMatrix in="SourceAlpha" type="matrix" values="0 0 0 0 0 0 0 0 0 0 0 0 0 0 0 0 0 0 127 0" result="hardAlpha"/>
<feOffset dy="1"/>
<feGaussianBlur stdDeviation="0.5"/>
<feComposite in2="hardAlpha" operator="arithmetic" k2="-1" k3="1"/>
<feColorMatrix type="matrix" values="0 0 0 0 0 0 0 0 0 0 0 0 0 0 0 0 0 0 0.2 0"/>
<feBlend mode="normal" in2="shape" result="effect1_innerShadow_0_443"/>
</filter>
</defs>
</svg>
