<svg preserveAspectRatio="none" width="100%" height="100%" overflow="visible" style="display: block;" viewBox="0 0 42 44.2888" fill="none" xmlns="http://www.w3.org/2000/svg">
<g id="viber-logo" clip-path="url(#clip0_0_463)">
<path id="Vector" d="M37.2588 4.3162C36.1583 3.30074 31.711 0.0722706 21.8049 0.0284091C21.8049 0.0284091 10.1232 -0.676032 4.42849 4.54747C1.2585 7.71812 0.143359 12.3575 0.025731 18.1093C-0.0918974 23.8611 -0.244085 34.6404 10.1464 37.5632H10.1564L10.1497 42.0231C10.1497 42.0231 10.0833 43.8287 11.2722 44.1969C12.7103 44.6435 13.5543 43.2711 14.9273 41.7918C15.6809 40.9797 16.7217 39.7868 17.5058 38.875C24.6121 39.4731 30.0775 38.1061 30.6982 37.9041C32.133 37.4389 40.252 36.3989 41.5725 25.6202C42.9355 14.5107 40.9132 7.48353 37.2588 4.3162ZM38.463 24.8234C37.3485 33.823 30.7633 34.3885 29.5491 34.778C29.0328 34.9441 24.2326 36.1383 18.1963 35.7442C18.1963 35.7442 13.6985 41.1704 12.2936 42.5813C12.0743 42.802 11.8165 42.891 11.6444 42.8471C11.4025 42.788 11.336 42.5016 11.3387 42.0829C11.3426 41.4848 11.3772 34.6716 11.3772 34.6716C2.58764 32.2313 3.10002 23.057 3.1997 18.2528C3.29939 13.4487 4.20187 9.51311 6.88274 6.86614C11.6995 2.50326 21.6222 3.1552 21.6222 3.1552C30.0017 3.19175 34.017 5.71511 34.9481 6.56044C38.0396 9.20741 39.6147 15.5414 38.463 24.8208V24.8234Z" fill="var(--fill-0, white)"/>
<path id="Vector_2" d="M25.8828 17.8582C25.7738 15.6612 24.6577 14.5073 22.5347 14.3965" stroke="var(--stroke-0, white)" stroke-width="1.26495" stroke-linecap="round" stroke-linejoin="round"/>
<path id="Vector_3" d="M28.7571 18.8217C28.8014 16.7748 28.1951 15.0647 26.9381 13.6912C25.6755 12.3129 23.9277 11.554 21.6847 11.3899" stroke="var(--stroke-0, white)" stroke-width="1.26495" stroke-linecap="round" stroke-linejoin="round"/>
<path id="Vector_4" d="M31.6997 19.973C31.6727 16.4211 30.6113 13.6237 28.5157 11.5808C26.4201 9.53793 23.8139 8.50564 20.6971 8.48393" stroke="var(--stroke-0, white)" stroke-width="1.26495" stroke-linecap="round" stroke-linejoin="round"/>
<path id="Vector_5" d="M22.6456 25.362C22.6456 25.362 23.4332 25.4285 23.8571 24.9061L24.6839 23.8661C25.0826 23.3504 26.0449 23.0214 26.9873 23.5464C27.6934 23.9492 28.379 24.387 29.0414 24.8583C29.6668 25.3182 30.9474 26.3868 30.9514 26.3868C31.5615 26.9018 31.7024 27.6581 31.287 28.4556C31.287 28.4602 31.2837 28.4682 31.2837 28.4722C30.8262 29.2652 30.2454 29.9804 29.5631 30.5908C29.5551 30.5948 29.5551 30.5988 29.5478 30.6028C28.955 31.0981 28.3727 31.3797 27.8007 31.4475C27.7165 31.4622 27.6309 31.4676 27.5455 31.4634C27.2933 31.4659 27.0423 31.4273 26.8025 31.3491L26.7839 31.3219C25.9027 31.0733 24.4313 30.4513 21.9811 29.0996C20.5631 28.3265 19.2132 27.4348 17.9458 26.434C17.3106 25.9326 16.7046 25.3952 16.1309 24.8244L16.0697 24.7633L16.0086 24.7021L15.9475 24.6403C15.9269 24.6204 15.9069 24.5998 15.8863 24.5792C15.3155 24.0055 14.7781 23.3995 14.2767 22.7642C13.276 21.4969 12.3843 20.1473 11.6112 18.7296C10.2594 16.2787 9.6374 14.8087 9.38885 13.9262L9.3616 13.9075C9.2837 13.6677 9.24531 13.4167 9.24796 13.1646C9.24331 13.0792 9.24844 12.9936 9.26325 12.9094C9.33458 12.3387 9.61658 11.7561 10.1092 11.1616C10.1132 11.1542 10.1172 11.1542 10.1212 11.1463C10.7315 10.464 11.4467 9.88337 12.2398 9.42637C12.2438 9.42637 12.2518 9.42238 12.2565 9.42238C13.0539 9.00703 13.8102 9.14792 14.3246 9.75467C14.3286 9.75865 15.3952 11.0393 15.8531 11.6646C16.3244 12.3277 16.7623 13.0139 17.165 13.7208C17.69 14.6625 17.361 15.6268 16.8453 16.0242L15.8052 16.8509C15.2802 17.2749 15.3494 18.0624 15.3494 18.0624C15.3494 18.0624 16.8898 23.8927 22.6456 25.362Z" fill="var(--fill-0, white)"/>
</g>
<defs>
<clipPath id="clip0_0_463">
<rect width="42" height="44.2888" fill="white"/>
</clipPath>
</defs>
</svg>
