<svg overflow="visible" style="display: block;" viewBox="0 0 32.2154 32.2154" fill="none" xmlns="http://www.w3.org/2000/svg">
<g id="Web-icon" filter="url(#filter0_d_0_457)">
<path d="M1.10769 10.3692C1.10769 5.65518 1.10769 3.29816 2.57216 1.8337C4.03662 0.369231 6.39365 0.369231 11.1077 0.369231L21.1077 0.369231C25.8217 0.369231 28.1788 0.369231 29.6432 1.8337C31.1077 3.29816 31.1077 5.65519 31.1077 10.3692V20.3692C31.1077 25.0833 31.1077 27.4403 29.6432 28.9048C28.1788 30.3692 25.8217 30.3692 21.1077 30.3692H11.1077C6.39365 30.3692 4.03662 30.3692 2.57216 28.9048C1.10769 27.4403 1.10769 25.0833 1.10769 20.3692V10.3692Z" fill="var(--fill-0, white)" shape-rendering="crispEdges"/>
<path d="M11.1077 0.869231L21.1077 0.869231C23.4788 0.869231 25.2071 0.870404 26.5276 1.04794C27.8336 1.22355 28.6655 1.56377 29.2893 2.18759C29.9131 2.81141 30.2534 3.6433 30.429 4.94931C30.6065 6.26982 30.6077 7.99807 30.6077 10.3692V20.3692C30.6077 22.7404 30.6065 24.4686 30.429 25.7892C30.2534 27.0952 29.9131 27.9271 29.2893 28.5509C28.6655 29.1747 27.8336 29.5149 26.5276 29.6905C25.2071 29.8681 23.4788 29.8692 21.1077 29.8692H11.1077C8.73653 29.8692 7.00828 29.8681 5.68777 29.6905C4.38176 29.5149 3.54987 29.1747 2.92605 28.5509C2.30223 27.9271 1.96201 27.0952 1.7864 25.7892C1.60887 24.4686 1.60769 22.7404 1.60769 20.3692L1.60769 10.3692C1.60769 7.99807 1.60887 6.26982 1.7864 4.94931C1.96201 3.6433 2.30223 2.81141 2.92605 2.18759C3.54987 1.56377 4.38176 1.22355 5.68777 1.04794C7.00828 0.870404 8.73653 0.869231 11.1077 0.869231Z" stroke="var(--stroke-0, #EFEDEA)" shape-rendering="crispEdges"/>
<path id="&#244;&#128;&#134;&#170;" d="M16.1077 25.3692C10.5898 25.3692 6.10769 20.8871 6.10769 15.3692C6.10769 9.85132 10.5898 5.36923 16.1077 5.36923C21.6256 5.36923 26.1077 9.85132 26.1077 15.3692C26.1077 20.8871 21.6256 25.3692 16.1077 25.3692ZM18.4794 7.25694C19.1667 7.94425 19.7573 8.91231 20.1929 10.1127C20.8802 9.89004 21.4707 9.60931 21.9547 9.27049C20.9867 8.34116 19.796 7.64416 18.4794 7.25694ZM10.2606 9.27049C10.7447 9.60931 11.3352 9.89004 12.0225 10.103C12.4581 8.91231 13.0486 7.94425 13.736 7.25694C12.4194 7.64416 11.2287 8.34116 10.2606 9.27049ZM16.7853 7.58607V10.6548C17.521 10.6258 18.2084 10.558 18.8473 10.4418C18.3245 9.01879 17.5888 7.9733 16.7853 7.58607ZM13.3681 10.4418C14.007 10.558 14.6943 10.6258 15.4301 10.6548V7.58607C14.6266 7.9733 13.9005 9.01879 13.3681 10.4418ZM7.68562 14.6916H11.1706C11.219 13.5009 11.3836 12.3779 11.6353 11.3712C10.735 11.0904 9.96055 10.7129 9.37971 10.2579C8.43102 11.5164 7.82115 13.0362 7.68562 14.6916ZM21.0448 14.6916H24.5298C24.4039 13.0362 23.794 11.5164 22.8357 10.2579C22.2548 10.7129 21.4804 11.0904 20.5801 11.3712C20.8318 12.3779 20.9964 13.5009 21.0448 14.6916ZM12.5549 14.6916H15.4301V12.0101C14.5685 11.9714 13.7456 11.8746 12.9712 11.7197C12.7485 12.6296 12.6033 13.6364 12.5549 14.6916ZM16.7853 14.6916H19.6604C19.612 13.6364 19.4668 12.6296 19.2442 11.7197C18.4697 11.8746 17.6469 11.9714 16.7853 12.0101V14.6916ZM7.68562 16.0469C7.82115 17.7119 8.4407 19.2511 9.39908 20.5096C9.97991 20.0643 10.7447 19.6964 11.6353 19.406C11.3836 18.3896 11.219 17.2569 11.1706 16.0469H7.68562ZM12.5549 16.0469C12.5937 17.1117 12.7485 18.1379 12.9809 19.0575C13.7456 18.9123 14.5782 18.8155 15.4301 18.7768V16.0469H12.5549ZM16.7853 18.7768C17.6469 18.8155 18.4697 18.9123 19.2345 19.0575C19.4668 18.1379 19.6217 17.1117 19.6604 16.0469H16.7853V18.7768ZM20.5801 19.406C21.4707 19.6964 22.2355 20.0643 22.8163 20.5096C23.7747 19.2511 24.3942 17.7119 24.5298 16.0469H21.0448C20.9964 17.2569 20.8415 18.3896 20.5801 19.406ZM16.7853 20.1321V23.1524C17.5791 22.7748 18.3052 21.739 18.8279 20.345C18.1987 20.2289 17.5114 20.1611 16.7853 20.1321ZM13.3875 20.345C13.9102 21.739 14.6362 22.7748 15.4301 23.1524V20.1321C14.704 20.1611 14.0167 20.2289 13.3875 20.345ZM10.2897 21.497C11.2481 22.407 12.4194 23.0943 13.7166 23.4718C13.0486 22.7942 12.4678 21.8358 12.0322 20.6742C11.3545 20.8871 10.7737 21.1679 10.2897 21.497ZM20.1832 20.6742C19.7476 21.8358 19.1764 22.7942 18.4988 23.4718C19.796 23.0943 20.9673 22.407 21.9257 21.497C21.4417 21.1679 20.8608 20.8871 20.1832 20.6742Z" fill="var(--fill-0, #1E1919)"/>
</g>
<defs>
<filter id="filter0_d_0_457" x="0" y="0" width="32.2154" height="32.2154" filterUnits="userSpaceOnUse" color-interpolation-filters="sRGB">
<feFlood flood-opacity="0" result="BackgroundImageFix"/>
<feColorMatrix in="SourceAlpha" type="matrix" values="0 0 0 0 0 0 0 0 0 0 0 0 0 0 0 0 0 0 127 0" result="hardAlpha"/>
<feOffset dy="0.738461"/>
<feGaussianBlur stdDeviation="0.553846"/>
<feComposite in2="hardAlpha" operator="out"/>
<feColorMatrix type="matrix" values="0 0 0 0 0 0 0 0 0 0 0 0 0 0 0 0 0 0 0.15 0"/>
<feBlend mode="normal" in2="BackgroundImageFix" result="effect1_dropShadow_0_457"/>
<feBlend mode="normal" in="SourceGraphic" in2="effect1_dropShadow_0_457" result="shape"/>
</filter>
</defs>
</svg>
