<svg preserveAspectRatio="none" width="100%" height="100%" overflow="visible" style="display: block;" viewBox="0 0 31 30" fill="none" xmlns="http://www.w3.org/2000/svg">
<g id="SMS-Icon">
<rect width="31" height="30" rx="10" fill="url(#paint0_linear_0_484)"/>
<path id="&#244;&#128;&#140;&#165;" d="M8.2675 25.1842C7.48833 25.1842 7.20417 24.6158 7.69 24.0108C8.06583 23.525 8.9275 22.5442 9.49583 21.5908C9.60583 21.38 9.56 21.2425 9.34 21.1233C6.22333 19.4183 4.5 16.6867 4.5 13.7167C4.5 8.785 9.395 4.81584 15.5 4.81584C21.605 4.81584 26.5 8.785 26.5 13.7167C26.5 19.2167 21.2658 22.6083 14.6292 22.6175C14.565 22.6175 14.4733 22.6175 14.3633 22.6083C14.18 22.6083 14.0242 22.6542 13.8133 22.7917C11.9983 24.0658 9.41333 25.1842 8.2675 25.1842Z" fill="var(--fill-0, white)"/>
</g>
<defs>
<linearGradient id="paint0_linear_0_484" x1="15.5" y1="0" x2="15.5" y2="30" gradientUnits="userSpaceOnUse">
<stop stop-color="#5BF675"/>
<stop offset="1" stop-color="#0CBD2A"/>
</linearGradient>
</defs>
</svg>
