<svg overflow="visible" style="display: block;" viewBox="0 0 133.197 30" fill="none" xmlns="http://www.w3.org/2000/svg">
<g id="Logo">
<path id="Vector" d="M69.5144 11.4332H66.8508V7.54228H68.215C69.2927 7.54228 69.8332 7.00489 69.8332 5.92848V3.01879H74.4323V7.54228H78.5233V11.4638H74.4323V18.2321C74.4323 19.4344 74.9712 20.0348 76.3985 20.0348C76.9697 20.0348 77.6996 19.9395 78.5864 19.7814V23.577C77.2853 23.8934 75.7318 23.9886 74.8433 23.9886C71.2913 23.9886 69.5144 22.3441 69.5144 19.2117V11.4299V11.4332Z" fill="var(--fill-0, #1E1919)"/>
<path id="Vector_2" d="M83.8498 30C83.0245 30 82.2316 29.8741 81.5341 29.6207V25.9203C82.0099 26.0155 82.3902 26.0462 82.8983 26.0462C84.5166 26.0462 85.4357 25.5717 85.8792 24.2742C85.9746 23.9579 86.0701 23.7045 86.0701 23.4205C86.0701 22.9461 85.816 22.5668 85.4989 21.776L79.5679 7.54228H85.0231L88.8292 17.5689L92.192 7.54228H97.3931L90.8278 24.6551C89.4005 28.3555 87.465 30 83.8498 30Z" fill="var(--fill-0, #1E1919)"/>
<path id="Vector_3" d="M98.1562 29.5922V7.54598H103.04V9.60197C104.118 8.05272 105.799 7.13446 108.147 7.13446C112.271 7.13446 115.125 10.5816 115.125 15.5488C115.125 20.5161 112.271 23.9939 108.147 23.9939C105.864 23.9939 104.183 23.1079 103.105 21.6216V29.5922H98.1562ZM110.05 15.5488C110.05 12.6698 108.749 10.9301 106.594 10.9301C104.438 10.9301 103.009 12.6375 103.009 15.5488C103.009 18.4601 104.5 20.1982 106.594 20.1982C108.688 20.1982 110.05 18.4585 110.05 15.5488Z" fill="var(--fill-0, #1E1919)"/>
<path id="Vector_4" d="M133.158 16.9722H121.105C121.455 19.2186 122.724 20.3886 124.785 20.3886C126.497 20.3886 127.799 19.5656 128.116 18.3004L132.936 18.5215C132.08 22.0638 128.781 23.9939 124.785 23.9939C119.52 23.9939 116.095 20.4516 116.095 15.5795C116.095 10.7074 119.68 7.13446 124.785 7.13446C130.177 7.13446 133.603 10.5816 133.158 16.9722ZM128.179 13.8092C127.829 11.6273 126.497 10.7413 124.785 10.7413C122.882 10.7413 121.614 11.7854 121.17 13.8092H128.18H128.179Z" fill="var(--fill-0, #1E1919)"/>
<path id="Vector_5" d="M7.07341 23.6274V6.13533H0V1.48596H19.5065V6.13533H12.4331V23.6274H7.07341Z" fill="var(--fill-0, #1E1919)"/>
<path id="Vector_6" d="M31.9739 17.0191H19.9211C20.2706 19.2655 21.5393 20.4355 23.601 20.4355C25.3131 20.4355 26.6142 19.6125 26.9314 18.3473L31.7522 18.5684C30.8961 22.1107 27.5965 24.0408 23.601 24.0408C18.3352 24.0408 14.9109 20.4985 14.9109 15.6264C14.9109 10.7543 18.4954 7.18134 23.601 7.18134C28.993 7.18134 32.4189 10.6284 31.9739 17.0191ZM26.9929 13.856C26.6433 11.6742 25.3115 10.7882 23.5994 10.7882C21.6963 10.7882 20.4276 11.8323 19.9842 13.856H26.9945H26.9929Z" fill="var(--fill-0, #1E1919)"/>
<path id="Vector_7" d="M48.4878 17.7776L47.7839 18.0278C46.2012 18.6556 41.696 20.0015 39.8916 18.7088L39.8771 18.6991C39.0906 18.1875 37.7652 16.4059 37.7312 10.2412C37.7782 8.09643 38.0371 5.76932 39.6068 4.74939C39.9887 4.53476 40.4111 4.4928 40.7655 4.63482C41.094 4.76715 41.3286 5.03988 41.4468 5.43849C41.6814 6.13566 41.5811 7.2863 41.1862 8.44017C40.6927 9.87968 40.1651 10.7463 39.4968 11.8421C39.2022 12.3246 38.8689 12.8717 38.5064 13.5237L38.4433 13.6366L38.4578 13.7657C38.8398 17.2693 40.1586 18.2941 40.1586 18.2941L40.4451 17.8809C40.4564 17.8648 40.4823 17.8293 40.5211 17.776C41.9711 15.7652 45.4018 10.7544 45.9666 7.66877C46.3323 5.68056 45.8711 3.61812 44.7302 2.15117C43.7317 0.866583 42.3271 0.127459 40.6668 0.0112648C39.0728 -0.0887911 37.5484 0.479265 36.2538 1.6525C35.1372 2.66436 34.2714 4.06192 33.8151 5.59019C33.3247 7.22982 33.2438 8.90495 33.2293 10.3251C33.1661 14.2934 33.7746 19.5964 37.0192 22.3173C38.3866 23.4631 40.1036 24.044 42.1232 24.044C42.8547 24.044 43.6104 23.9343 44.4098 23.8197L44.4648 23.8117C46.3323 23.5422 49.6562 22.0236 49.797 21.959L50.3601 21.6879C49.7662 21.1327 48.8487 19.6448 48.4911 17.7825L48.4878 17.7776Z" fill="var(--fill-0, #1E1919)"/>
<path id="Vector_8" d="M66.3543 16.9722H54.3015C54.6511 19.2186 55.9198 20.3886 57.9814 20.3886C59.6936 20.3886 60.9946 19.5656 61.3118 18.3004L66.1326 18.5215C65.2766 22.0638 61.9769 23.9939 57.9814 23.9939C52.7156 23.9939 49.2914 20.4516 49.2914 15.5795C49.2914 10.7074 52.8758 7.13446 57.9814 7.13446C63.3735 7.13446 66.7993 10.5816 66.3543 16.9722ZM61.3733 13.8092C61.0238 11.6273 59.6919 10.7413 57.9798 10.7413C56.0768 10.7413 54.808 11.7854 54.3646 13.8092H61.3749H61.3733Z" fill="var(--fill-0, #1E1919)"/>
</g>
</svg>
