<svg overflow="visible" style="display: block;" viewBox="0 0 222.192 49.9985" fill="none" xmlns="http://www.w3.org/2000/svg">
<g id="Teletype">
<path id="Vector" d="M115.961 19.0498H111.518V12.5639H113.793C115.591 12.5639 116.493 11.6681 116.493 9.87375V5.02344H124.165V12.5639H130.989V19.1009H124.165V30.3834C124.165 32.3875 125.064 33.3882 127.445 33.3882C128.398 33.3882 129.615 33.2295 131.094 32.9659V39.2931C128.924 39.8204 126.332 39.9791 124.85 39.9791C118.925 39.9791 115.961 37.2378 115.961 32.0163V19.0444V19.0498Z" fill="var(--fill-0, #1E1919)"/>
<path id="Vector_2" d="M139.873 49.9985C138.497 49.9985 137.174 49.7886 136.01 49.3663V43.1978C136.804 43.3565 137.438 43.4076 138.286 43.4076C140.986 43.4076 142.519 42.6167 143.259 40.4538C143.418 39.9266 143.577 39.5042 143.577 39.0308C143.577 38.2399 143.153 37.6077 142.624 36.2895L132.73 12.5625H141.83L148.18 29.2763L153.789 12.5625H162.466L151.514 41.0887C149.133 47.2572 145.904 49.9985 139.873 49.9985Z" fill="var(--fill-0, #1E1919)"/>
<path id="Vector_3" d="M163.736 49.3344V12.5844H171.883V16.0117C173.681 13.4291 176.486 11.8984 180.403 11.8984C187.281 11.8984 192.043 17.6446 192.043 25.9248C192.043 34.2051 187.281 40.0023 180.403 40.0023C176.594 40.0023 173.789 38.5254 171.991 36.0478V49.3344H163.736ZM183.578 25.9248C183.578 21.1256 181.407 18.2256 177.812 18.2256C174.216 18.2256 171.832 21.0718 171.832 25.9248C171.832 30.7778 174.318 33.6751 177.812 33.6751C181.305 33.6751 183.578 30.7751 183.578 25.9248Z" fill="var(--fill-0, #1E1919)"/>
<path id="Vector_4" d="M222.128 28.2975H202.022C202.605 32.0422 204.721 33.9925 208.16 33.9925C211.016 33.9925 213.187 32.6206 213.716 30.5115L221.758 30.88C220.33 36.7849 214.825 40.0023 208.16 40.0023C199.376 40.0023 193.664 34.0974 193.664 25.9759C193.664 17.8544 199.643 11.8984 208.16 11.8984C217.155 11.8984 222.87 17.6446 222.128 28.2975ZM213.821 23.0248C213.238 19.3878 211.016 17.9109 208.16 17.9109C204.986 17.9109 202.869 19.6514 202.13 23.0248H213.824H213.821Z" fill="var(--fill-0, #1E1919)"/>
<path id="Vector_5" d="M11.7995 39.3774V10.219H0V2.46875H32.5398V10.219H20.7403V39.3774H11.7995Z" fill="var(--fill-0, #1E1919)"/>
<path id="Vector_6" d="M53.3347 28.36H33.2288C33.8119 32.1047 35.9283 34.055 39.3674 34.055C42.2235 34.055 44.3939 32.6831 44.923 30.574L52.9649 30.9426C51.5368 36.8474 46.0325 40.0648 39.3674 40.0648C30.5832 40.0648 24.8711 34.16 24.8711 26.0384C24.8711 17.9169 30.8505 11.9609 39.3674 11.9609C48.3622 11.9609 54.077 17.7071 53.3347 28.36ZM45.0256 23.0873C44.4425 19.4503 42.2208 17.9734 39.3647 17.9734C36.1901 17.9734 34.0737 19.7139 33.334 23.0873H45.0283H45.0256Z" fill="var(--fill-0, #1E1919)"/>
<path id="Vector_7" d="M80.8846 29.6345L79.7103 30.0515C77.0702 31.0979 69.5548 33.3415 66.5448 31.1867L66.5205 31.1706C65.2085 30.3178 62.9976 27.3479 62.941 17.0716C63.0192 13.4964 63.4512 9.61718 66.0697 7.91702C66.7068 7.55923 67.4113 7.48929 68.0025 7.72602C68.5505 7.94661 68.942 8.40125 69.139 9.06571C69.5305 10.2278 69.3631 12.1459 68.7044 14.0694C67.8811 16.469 67.001 17.9136 65.8861 19.7402C65.3948 20.5445 64.8387 21.4565 64.234 22.5433L64.1287 22.7316L64.153 22.9468C64.7901 28.7871 66.9902 30.4953 66.9902 30.4953L67.468 29.8067C67.4869 29.7798 67.5301 29.7206 67.5949 29.6318C70.0137 26.2799 75.7366 17.927 76.6788 12.7835C77.2888 9.46922 76.5195 6.03124 74.6163 3.5859C72.9507 1.44455 70.6076 0.212468 67.8379 0.0187778C65.1789 -0.148011 62.6359 0.798913 60.4763 2.75464C58.6137 4.44136 57.1694 6.77102 56.4082 9.31858C55.5902 12.0518 55.4552 14.8441 55.4309 17.2114C55.3257 23.8265 56.3407 32.6663 61.7532 37.2018C64.0343 39.1118 66.8984 40.0803 70.2674 40.0803C71.4876 40.0803 72.7483 39.8974 74.0818 39.7064L74.1736 39.6929C77.2888 39.2437 82.8336 36.7122 83.0685 36.6046L84.0079 36.1527C83.0172 35.2273 81.4866 32.747 80.89 29.6426L80.8846 29.6345Z" fill="var(--fill-0, #1E1919)"/>
<path id="Vector_8" d="M110.69 28.2975H90.5842C91.1673 32.0422 93.2837 33.9925 96.7229 33.9925C99.579 33.9925 101.749 32.6206 102.279 30.5115L110.32 30.88C108.892 36.7849 103.388 40.0023 96.7229 40.0023C87.9387 40.0023 82.2266 34.0974 82.2266 25.9759C82.2266 17.8544 88.206 11.8984 96.7229 11.8984C105.718 11.8984 111.433 17.6446 110.69 28.2975ZM102.381 23.0248C101.798 19.3878 99.5763 17.9109 96.7202 17.9109C93.5456 17.9109 91.4292 19.6514 90.6895 23.0248H102.384H102.381Z" fill="var(--fill-0, #1E1919)"/>
</g>
</svg>
