<svg viewBox="0 0 20.1342 24.0012" fill="none" xmlns="http://www.w3.org/2000/svg">
<path d="M6.31132 24.0012V8.34995H0V4.18945H17.406V8.34995H11.0944V24.0012H6.31132Z" fill="#1F1914"/>
<path d="M18.2065 15.5112L17.9178 15.6462C16.5475 16.288 13.1155 17.6457 10.8216 16.4109C9.19239 15.3328 8.92753 11.2507 8.91488 8.91795C8.95646 7.01216 9.18877 4.94126 10.5959 4.02588C10.9524 3.8237 11.3474 3.78453 11.6818 3.91891C11.9937 4.04396 12.2152 4.30158 12.3249 4.67309C12.5388 5.31066 12.4505 6.10914 12.0543 7.11461C11.9741 7.3201 11.8976 7.51927 11.8232 7.71361C11.2751 9.14182 10.5492 10.4055 9.51389 11.7476L9.44519 11.8367L9.45875 11.9485C9.538 12.6042 9.82575 14.5229 10.4901 15.532C10.6209 15.7306 10.7918 15.899 10.9861 16.0361L11.1169 15.8695C11.1536 15.8369 15.5272 9.94632 16.1304 6.64276C16.4474 4.91745 16.0482 3.12888 15.0626 1.85825C14.2017 0.748525 12.9911 0.109145 11.5595 0.00971309C10.1873 -0.0767629 8.86848 0.415578 7.75211 1.43099C6.78489 2.31022 6.03432 3.5257 5.63839 4.85358C5.21173 6.2845 5.14092 7.74917 5.12766 8.99147C5.07342 12.4611 5.60042 17.0949 8.42042 19.4653C9.60308 20.4596 11.0904 20.9637 12.8413 20.9637C13.4867 20.9637 14.1767 20.8944 14.8948 20.7576C16.426 20.4515 18.2481 19.8878 19.7679 19.1978L20.1337 19.0314L18.2068 15.5118L18.2065 15.5112Z" fill="#DDD0B0"/>
<path d="M9.17079 7.77788C9.13373 13.0351 10.2947 16.5644 11.0908 16.5017V7.72876C10.0247 7.70165 9.24943 7.77336 9.17079 7.77788Z" fill="#1F1914"/>
<path d="M11.2668 8.34482C12.0117 8.34482 16.6688 8.34452 16.6688 8.34452C16.6688 8.34452 16.7303 4.32595 16.7194 4.18945H11.0264C10.9993 5.25549 11.2623 8.26618 11.2668 8.34482Z" fill="#1F1914"/>
</svg>