<svg preserveAspectRatio="none" width="100%" height="100%" overflow="visible" style="display: block;" viewBox="0 0 68.0013 80.0011" fill="none" xmlns="http://www.w3.org/2000/svg">
<g id="Mark">
<path id="Vector" d="M21.3161 80.0011V27.8302H0.000664766V13.9619H58.7867V27.8302H37.4702V80.0011H21.3161Z" fill="var(--fill-0, #1F1914)"/>
<path id="Vector_2" d="M61.4925 51.7041L60.5176 52.154C55.8894 54.2933 44.2984 58.819 36.5511 54.7031C31.0488 51.1095 30.1543 37.5023 30.1115 29.7265C30.252 23.3739 31.0366 16.4709 35.7889 13.4196C36.9928 12.7457 38.3269 12.6151 39.4565 13.063C40.5098 13.4799 41.2577 14.3386 41.6281 15.577C42.3507 17.7022 42.0525 20.3638 40.7143 23.7154C40.4436 24.4003 40.1851 25.0642 39.9338 25.712C38.0827 30.4727 35.6312 34.6851 32.1346 39.1585L31.9026 39.4558L31.9484 39.8284C32.216 42.0139 33.1878 48.4097 35.4317 51.7734C35.8734 52.4352 36.4504 52.9967 37.1068 53.4537L37.5484 52.8983C37.6726 52.7898 52.4436 33.1544 54.4809 22.1425C55.5515 16.3915 54.2031 10.4296 50.8744 6.19417C47.967 2.49508 43.8781 0.363818 39.0433 0.032377C34.409 -0.255876 29.9548 1.38526 26.1844 4.76998C22.9178 7.70072 20.3829 11.7523 19.0457 16.1786C17.6047 20.9483 17.3656 25.8306 17.3208 29.9716C17.1376 41.5369 18.9175 56.983 28.4416 64.8844C32.4358 68.1988 37.4589 69.8791 43.3724 69.8791C45.5522 69.8791 47.8826 69.6481 50.3076 69.1921C55.4792 68.1717 61.6329 66.2925 66.7659 63.9925L68.0013 63.4381L61.4935 51.7061L61.4925 51.7041Z" fill="var(--fill-0, #DDD0B0)"/>
<path id="Vector_3" d="M30.9737 25.9244C30.8485 43.4486 34.7695 55.2127 37.4581 55.0038V25.7607C33.8577 25.6703 31.2393 25.9093 30.9737 25.9244Z" fill="var(--fill-0, #1F1914)"/>
<path id="Vector_4" d="M38.0516 27.8236C40.5672 27.8236 56.2958 27.8226 56.2958 27.8226C56.2958 27.8226 56.5034 14.4274 56.4668 13.9724H37.2395C37.1479 17.5259 38.0363 27.5615 38.0516 27.8236Z" fill="var(--fill-0, #1F1914)"/>
</g>
</svg>
