<svg preserveAspectRatio="none" width="100%" height="100%" overflow="visible" style="display: block;" viewBox="0 0 34.2986 48.0928" fill="none" xmlns="http://www.w3.org/2000/svg">
<path id="Vector" d="M30.5509 35.5587L29.1418 36.0591C25.9739 37.3147 16.956 40.0068 13.3443 37.4213L13.3151 37.4019C11.7409 36.3786 9.08798 32.815 9.01996 20.4843C9.11389 16.1944 9.63217 11.5398 12.7742 9.49971C13.5386 9.0704 14.3841 8.98647 15.0934 9.27053C15.751 9.53522 16.2207 10.0807 16.4572 10.878C16.9268 12.2725 16.726 14.574 15.9356 16.882C14.9477 19.7613 13.8917 21.4947 12.5539 23.6864C11.9644 24.6516 11.2971 25.7458 10.5715 27.0499L10.4452 27.2759L10.4744 27.5341C11.2388 34.5419 13.8787 36.5917 13.8787 36.5917L14.4521 35.7653C14.4748 35.733 14.5266 35.662 14.6043 35.5555C17.5066 31.5335 24.3737 21.5108 25.5042 15.339C26.2363 11.3622 25.3131 7.23694 23.0295 4.30276C21.0309 1.73333 18.2193 0.254942 14.8959 0.0225317C11.7053 -0.1776 8.65394 0.958624 6.06258 3.30532C3.82754 5.32923 2.09457 8.12462 1.18112 11.1815C0.199644 14.461 0.0376857 17.8116 0.00853301 20.6522C-0.117795 28.5897 1.10014 39.1966 7.59472 44.6389C10.3318 46.9307 13.7686 48.0928 17.8111 48.0928C19.2752 48.0928 20.7879 47.8733 22.3881 47.6441L22.4982 47.6279C26.2363 47.0889 32.8896 44.0514 33.1714 43.9223L34.2986 43.38C33.1098 42.2696 31.2732 39.2935 30.5574 35.5684L30.5509 35.5587Z" fill="var(--fill-0, #FEF9EA)"/>
</svg>
